<svg width="146" height="35" viewBox="0 0 146 35" fill="none" xmlns="http://www.w3.org/2000/svg">
<path d="M128.222 14.858C128.275 14.0256 128.269 13.1905 128.205 12.3589C127.853 10.3087 128.829 9.93644 130.649 10.0297C131.998 10.0983 132.548 10.3421 132.497 11.831C132.386 15.2921 132.386 18.7582 132.497 22.2293C132.548 23.8775 131.653 23.9426 130.473 23.8828C129.378 23.8264 128.023 24.2497 128.207 22.2865C128.418 20.0427 126.398 19.1284 124.964 17.6598C124.964 19.1478 124.871 20.6428 124.988 22.1211C125.128 23.8916 124.076 23.9118 122.806 23.896C121.588 23.8801 120.504 23.9945 120.562 22.1792C120.664 18.9462 120.548 15.708 120.62 12.4733C120.637 11.6691 120.029 10.3773 121.36 10.1661C122.49 9.99011 123.802 9.66453 124.766 10.9035C125.73 12.1425 126.836 13.2838 128.222 14.858Z" fill="#003386"/>
<path d="M98.29 13.817C97.1461 13.817 96.4527 13.7765 95.7637 13.8249C94.3637 13.9244 93.5022 13.7607 93.4758 11.9102C93.4521 9.98746 94.4156 10.0227 95.7531 10.0675C97.4479 10.1239 99.1533 9.98658 100.84 10.1177C101.818 10.1934 103.382 9.38733 103.674 10.6756C104.005 12.131 104.312 13.8522 103.008 15.2663C101.726 16.6575 100.584 18.1772 99.3336 19.6968C100.12 20.1334 101.041 20.2605 101.916 20.0532C103.433 19.9784 104.292 20.1694 104.292 22.1105C104.292 24.1643 103.106 23.8775 101.886 23.8757C99.9584 23.8757 98.0278 23.918 96.1034 23.8282C95.168 23.7842 93.7785 24.4107 93.3913 23.2729C93.0983 22.5978 92.996 21.8553 93.0956 21.1261C93.1952 20.3969 93.4929 19.709 93.9563 19.1372C95.3519 17.5234 96.656 15.8286 98.2883 13.8135" fill="#003386"/>
<path d="M52.7707 16.9346C52.7707 15.1641 52.8402 13.3901 52.7469 11.6241C52.6818 10.3781 53.1693 10.0287 54.3467 10.0613C56.734 10.1273 59.1292 10.1634 61.513 10.0498C62.9456 9.98208 63.1594 10.6165 63.1427 11.8221C63.1259 13.054 63.0204 13.948 61.4197 13.7949C60.2654 13.7296 59.1084 13.7255 57.9536 13.7826C57.5523 13.787 57.1476 13.8899 57.1784 14.3986C57.1797 14.4946 57.2006 14.5893 57.2399 14.6769C57.2791 14.7646 57.3359 14.8432 57.4067 14.9081C57.4775 14.973 57.5608 15.0227 57.6516 15.0541C57.7423 15.0856 57.8385 15.0982 57.9342 15.0911C58.3962 15.099 58.8591 15.1104 59.321 15.1008C60.5662 15.0744 61.6908 14.8368 61.6564 16.8809C61.623 18.8247 60.5319 18.4965 59.4082 18.5018C59.1004 18.4835 58.7917 18.4862 58.4842 18.5097C57.9562 18.5854 57.1379 18.1991 57.1414 19.2462C57.1449 20.2933 57.9166 20.1921 58.6109 20.193C59.458 20.2328 60.3066 20.2275 61.1531 20.1772C62.6112 20.0206 63.1999 20.4808 63.1647 22.0603C63.133 23.4928 62.6649 23.9372 61.2719 23.8809C58.9629 23.7929 56.6478 23.8211 54.3361 23.8695C53.1517 23.895 52.6906 23.4629 52.7522 22.2495C52.8402 20.4825 52.7742 18.7086 52.7742 16.9381" fill="#003386"/>
<path d="M135.105 16.8784C135.192 15.4971 135.18 14.1115 135.069 12.732C134.729 10.3861 135.724 9.84932 137.868 10.0447C139.943 10.1814 142.024 10.1887 144.099 10.0667C145.327 10.0244 145.517 10.6527 145.419 11.6374C145.331 12.5587 145.797 13.788 144.142 13.7757C143.065 13.7677 141.985 13.7308 140.91 13.7977C140.388 13.8302 139.485 13.3973 139.457 14.3617C139.424 15.5109 140.437 14.9821 141.024 15.0929C141.329 15.139 141.639 15.1408 141.945 15.0982C143.234 14.9627 143.926 15.2865 143.906 16.8256C143.886 18.3496 143.211 18.6629 141.918 18.5124C141.38 18.4752 140.84 18.4726 140.302 18.5045C139.835 18.5098 139.377 18.486 139.391 19.1926C139.404 19.8306 139.579 20.2107 140.3 20.1958C141.3 20.1738 142.301 20.2116 143.301 20.1887C144.508 20.1606 145.501 20.0576 145.486 21.9038C145.471 23.6637 144.764 23.9382 143.286 23.8801C141.135 23.7921 138.974 23.8238 136.822 23.8986C135.543 23.9435 135.013 23.5158 135.083 22.1827C135.171 20.4228 135.105 18.6471 135.105 16.8792" fill="#003386"/>
<path d="M91.2908 13.9175C91.2204 11.4194 90.1213 10.2517 87.6302 10.1338C85.4048 10.0308 83.1689 10.1478 80.9426 10.0581C79.6975 10.0079 79.3358 10.5121 79.3771 11.6719C79.4405 13.4362 79.3939 15.2049 79.3947 16.9719C79.3956 18.7388 79.4212 20.5066 79.3842 22.2727C79.3631 23.2653 79.5857 23.8962 80.7684 23.861C83.0729 23.7932 85.3898 23.9111 87.6839 23.7352C90.2762 23.5363 91.2318 22.439 91.2917 19.9056C91.3418 17.9099 91.3454 15.9106 91.2917 13.9149M85.2341 20.2453C83.3492 20.3077 83.8693 19.089 83.8077 18.1184C83.7839 17.7365 83.8077 17.3511 83.8077 16.9675C83.8077 16.3515 83.8535 15.7355 83.7971 15.1266C83.7091 14.1938 83.9388 13.6615 85.0291 13.7961C85.8985 13.9043 87.0054 13.5374 87.0028 15.0201C87.0028 16.018 86.9623 17.0185 87.0186 18.012C87.0926 19.3143 86.9306 20.1872 85.2403 20.2435" fill="#003386"/>
<path d="M50.6907 21.5812C50.4505 19.7667 51.3067 17.6645 49.135 16.3956C48.5973 16.0806 49.1262 15.5869 49.2318 15.1751C50.1205 11.7055 48.8754 10.0512 45.2377 10.1119C43.0378 10.148 40.2026 9.11666 38.807 10.5827C37.5346 11.9193 38.587 14.6964 38.4383 16.466C38.4383 18.6817 38.4304 20.5305 38.4427 22.3784C38.4427 22.8923 38.3345 23.4194 38.9891 23.7485C40.9602 24.7393 43.0835 23.5725 42.8609 21.3638C42.648 19.2757 43.747 19.3399 45.1602 19.4191C46.9201 19.5133 46.2954 20.8622 46.2285 21.6612C46.0868 23.3639 46.6069 23.913 48.3782 23.9209C50.1997 23.9289 50.9362 23.4176 50.6925 21.5812M45.1391 14.8935C45.081 15.7418 44.4906 15.828 43.8192 15.7805C42.8856 15.8949 42.8873 15.2851 42.8864 14.6199C42.8864 13.8631 43.1504 13.4856 43.9732 13.5384C44.1473 13.5231 44.3225 13.5494 44.4844 13.6152C44.6463 13.681 44.7902 13.7843 44.9043 13.9167C45.0184 14.0491 45.0993 14.2067 45.1405 14.3766C45.1816 14.5464 45.1817 14.7236 45.1409 14.8935" fill="#003386"/>
<path d="M118.167 17.8269C118.188 17.5981 118.167 17.3658 118.167 17.1344C119.015 9.62753 115.759 9.39083 109.279 10.1775C108.852 10.2022 108.433 10.3115 108.049 10.4993C107.664 10.687 107.32 10.9493 107.038 11.271C106.755 11.5927 106.539 11.9673 106.403 12.3731C106.266 12.7789 106.212 13.2078 106.242 13.6348C106.197 15.8646 106.185 18.0971 106.252 20.3224C106.198 20.8652 106.301 21.4122 106.548 21.8983C106.796 22.3844 107.178 22.7891 107.649 23.0644C109.003 23.7249 110.483 24.0868 111.989 24.1255C113.495 24.1642 114.992 23.8789 116.379 23.2888C118.953 22.2513 117.982 19.7874 118.164 17.8234M112.613 20.2468C111.546 20.4289 110.58 20.2468 110.65 18.7509C110.716 17.5198 110.715 16.286 110.645 15.0551C110.566 13.8275 111.3 13.641 112.229 13.6471C113.138 13.6524 113.957 13.8003 113.894 15.0234C113.862 15.6394 113.888 16.2553 113.888 17.0622C113.443 17.9985 114.865 19.8684 112.614 20.2529" fill="#003386"/>
<path d="M76.2665 14.6453C74.3042 9.67714 74.1485 9.52051 68.8256 10.0802C68.1754 10.1488 67.6879 10.2218 67.43 10.968C66.4084 13.9238 64.6925 16.6983 65.1615 19.6795C65.1962 20.4125 65.1921 21.1469 65.1492 21.8794C64.9732 23.3375 65.4493 23.9825 67.0358 23.9033C68.4323 23.8303 69.7575 23.9772 69.4223 21.9208C69.2551 20.8948 69.6053 20.4856 70.7756 20.4011C72.5206 20.2753 72.8875 21.0021 72.7115 22.513C72.5144 24.1849 73.8026 23.8998 74.7301 23.8426C75.6576 23.7854 77.1201 24.4638 77.1297 22.6239C77.1429 19.9418 77.2996 17.272 76.2683 14.6585M71.1276 17.0344C70.5996 16.8901 69.6317 17.3046 69.8438 16.268C70.0268 15.388 69.8675 13.9211 71.1074 13.9326C72.1175 13.9414 72.0384 15.322 72.2575 16.1536C72.5346 17.2095 71.6529 16.9376 71.1285 17.0335" fill="#003386"/>
<path d="M28.1496 6.28285C27.7761 6.13189 27.3792 6.04703 26.9766 6.03206C26.8014 6.02788 26.6277 5.99823 26.461 5.94407C26.4349 5.77518 26.4433 5.60277 26.4856 5.43721C26.5706 5.13276 26.5821 4.81251 26.5192 4.50275C26.4563 4.19299 26.3209 3.90256 26.124 3.65531C25.8602 3.41542 25.5422 3.24304 25.1972 3.15293C24.8523 3.06281 24.4906 3.05766 24.1432 3.1379C23.7641 3.16683 23.3837 3.17594 23.0037 3.16518C22.4939 3.14416 21.9874 3.07432 21.491 2.95663V1.78982C21.4906 1.31542 21.302 0.860581 20.9666 0.525051C20.6312 0.189521 20.1765 0.000698781 19.7021 0L1.78894 0C1.31455 0.000698781 0.859794 0.189521 0.524429 0.525051C0.189064 0.860581 0.000465492 1.31542 0 1.78982L0 26.8543C0.000947197 27.121 0.0617683 27.3841 0.177974 27.6241C0.29418 27.8641 0.462805 28.075 0.671402 28.2411L6.78882 34.0294L24.357 33.6915H24.4063C25.6754 33.6032 26.8738 33.074 27.7941 32.1956C28.868 31.0001 29.443 29.4385 29.4009 27.832C29.6473 22.9922 29.5725 18.7051 29.5628 18.2335C29.5259 16.3072 29.5954 14.5931 29.657 13.0805C29.8048 9.46475 29.9016 7.07656 28.1505 6.28637M21.4919 20.2776V4.85293C21.9676 4.94425 22.4493 5.00013 22.9333 5.02012C23.3764 5.03431 23.82 5.02432 24.262 4.9902L24.4661 4.97788L24.0719 11.5159V16.3803L24.13 25.398L24.1494 25.5802C24.2444 26.0344 24.2445 26.5035 24.1495 26.9578C24.0546 27.4121 23.8667 27.8418 23.5976 28.22C23.2573 28.6627 22.8046 29.006 22.2865 29.2144C21.3643 29.2557 20.0664 29.3147 18.515 29.3824C12.5314 29.6464 11.4446 29.6693 10.4688 29.6746C8.58128 29.686 6.6489 29.6323 4.71653 29.5179L3.79171 28.6433H13.1192C15.3391 28.6407 17.4674 27.7576 19.0371 26.1878C20.6067 24.618 21.4896 22.4896 21.4919 20.2697M1.85406 1.85406H19.6361V20.2705C19.634 21.9988 18.9465 23.6556 17.7245 24.8776C16.5025 26.0997 14.8456 26.7871 13.1174 26.7892H1.85406V1.85406ZM27.8064 13.0013C27.744 14.5403 27.6727 16.2844 27.7105 18.266C27.7202 18.7315 27.7932 22.9553 27.5504 27.7343C27.6061 28.8708 27.2326 29.9867 26.5041 30.8607C25.9005 31.4281 25.122 31.7735 24.2963 31.8401L7.5139 32.1631L6.77562 31.4697C7.84564 31.5075 8.91126 31.5313 9.96368 31.5313H10.4776C11.4746 31.526 12.578 31.5013 18.5933 31.2382C20.2327 31.1661 21.5852 31.1045 22.5188 31.0622L22.6605 31.0552L22.7934 31.0068C23.6964 30.6831 24.487 30.106 25.0707 29.3446C25.4898 28.7673 25.7866 28.1105 25.9429 27.4145C26.0992 26.7185 26.1117 25.9979 25.9797 25.2968L25.9225 16.3706V11.5986L26.1521 7.78844C26.3719 7.83294 26.5945 7.86234 26.8182 7.87644C27.0105 7.8813 27.2012 7.91269 27.3849 7.96971C27.9947 8.24514 27.8971 10.6615 27.8012 12.9977" fill="#003386"/>
</svg>
