<svg width="70" height="38" viewBox="0 0 70 38" fill="none" xmlns="http://www.w3.org/2000/svg">
<path fill-rule="evenodd" clip-rule="evenodd" d="M67.9167 2.57311C68.3963 1.08988 67.9167 0 65.6339 0H58.0853C56.1659 0 55.281 0.941498 54.8011 1.9797C54.8011 1.9797 50.9624 10.6565 45.5243 16.2926C43.765 17.9241 42.9652 18.4432 42.0055 18.4432C41.5257 18.4432 40.8311 17.9241 40.8311 16.441V2.57312C40.8311 0.793241 40.2741 0 38.6745 0H26.8124C25.6129 0 24.8916 0.826081 24.8916 1.60899C24.8916 3.29627 27.6105 3.68537 27.8908 8.43169V18.7399C27.8908 21 27.4506 21.4097 26.4909 21.4097C23.9319 21.4097 17.7071 12.6942 14.0152 2.72137C13.2917 0.783 12.566 0 10.6367 0H3.08812C0.931372 0 0.5 0.941498 0.5 1.9797C0.5 3.83376 3.05915 13.0296 12.4158 25.1918C18.6536 33.4976 27.4421 38 35.4394 38C40.2377 38 40.8313 37 40.8313 35.2775V29C40.8313 27 41.2858 26.6009 42.8053 26.6009C43.9249 26.6009 45.8442 27.12 50.3227 31.1246C55.4409 35.8708 56.2847 38 59.1636 38H66.7123C68.869 38 69.9474 37 69.3253 35.0266C68.6445 33.0597 66.2009 30.2061 62.9584 26.8233C61.1989 24.8952 58.5599 22.8188 57.7601 21.7803C56.6405 20.4456 56.9604 19.8522 57.7601 18.6658C57.7601 18.6658 66.957 6.65182 67.9167 2.57311Z" fill="#0862E0"/>
</svg>
