<svg width="53" height="44" viewBox="0 0 53 44" fill="none" xmlns="http://www.w3.org/2000/svg">
<path d="M48.0668 0.388445C48.0668 0.388445 52.8772 -1.51613 52.4763 3.10926C52.3427 5.01386 51.1401 11.6799 50.2047 18.8901L46.9978 40.2485C46.9978 40.2485 46.7306 43.3774 44.3254 43.9216C41.9201 44.4657 38.3124 42.0171 37.6442 41.4729C37.1098 41.0648 27.6227 34.9429 24.2821 31.95C23.3467 31.1338 22.2777 29.5012 24.4157 27.5967L38.446 13.9926C40.0495 12.3601 41.653 8.55095 34.9718 13.1764L16.2648 26.1003C16.2648 26.1003 14.1269 27.4606 10.1183 26.2363L1.43281 23.5155C1.43281 23.5155 -1.77412 21.4749 3.70438 19.4342C17.0666 13.0402 33.5021 6.51024 48.0668 0.388445Z" fill="#0862E0"/>
</svg>
