<svg width="52" height="52" viewBox="0 0 52 52" fill="none" xmlns="http://www.w3.org/2000/svg">
<path d="M10.8004 26C10.7967 29.6828 12.0836 33.2481 14.4332 36.065C16.7829 38.8819 20.0438 40.7686 23.6388 41.3912C27.2338 42.0139 30.9311 41.3323 34.0762 39.4671C37.2213 37.602 39.6115 34.6735 40.8236 31.2H26.2511V20.8H51.5V31.2H51.4871C49.1 43.0664 38.7094 52 26.2511 52C12.0288 52 0.5 40.3598 0.5 26C0.5 11.6402 12.0288 6.58931e-06 26.2511 6.58931e-06C30.4601 -0.00302019 34.6056 1.03675 38.324 3.02814C42.0423 5.01952 45.2199 7.90167 47.5781 11.4218L39.1369 17.3888C37.3045 14.5923 34.6283 12.4663 31.5052 11.326C28.3821 10.1858 24.9782 10.0919 21.798 11.0583C18.6179 12.0247 15.8308 14 13.8499 16.6913C11.869 19.3827 10.7996 22.6468 10.8004 26Z" fill="#0862E0"/>
</svg>
