<svg width="24" height="24" viewBox="0 0 24 24" fill="none" xmlns="http://www.w3.org/2000/svg">
<g clip-path="url(#clip0_629_171570)">
<path d="M21.7482 11.8385C19.7451 9.83543 16.666 9.55599 14.3561 10.9892C13.7645 10.1715 12.9265 9.57045 11.9466 9.27627L11.1749 9.04883L7.86804 12.3556L4.56122 9.04883L3.78717 9.27674C1.82114 9.86688 0.5 11.6424 0.5 13.695V17.7516H11.7641C12.0358 18.6889 12.5391 19.5726 13.2766 20.3101C14.4442 21.4777 15.9783 22.0618 17.5124 22.0618C19.0465 22.0618 20.5805 21.4777 21.7482 20.3101C24.0839 17.9743 24.0839 14.1743 21.7482 11.8385ZM11.5729 16.7931H1.45844V13.695C1.45844 12.0688 2.50487 10.662 4.06 10.1954L4.28604 10.129L7.86804 13.7109L11.45 10.129L11.6737 10.1949C12.4513 10.4284 13.1173 10.9074 13.5861 11.5588C13.4816 11.6498 13.3761 11.7391 13.2766 11.8385C11.9258 13.1893 11.3614 15.0293 11.5729 16.7931ZM13.9543 12.5162C14.9352 11.5353 16.224 11.0448 17.5124 11.0448C18.6505 11.0448 19.7883 11.429 20.7145 12.1945L13.6326 19.2764C12.0005 17.3017 12.1068 14.3636 13.9543 12.5162ZM21.0705 19.6324C19.2231 21.4799 16.2849 21.5862 14.3103 19.9541L21.3922 12.8722C23.0242 14.8469 22.918 17.785 21.0705 19.6324Z" fill="currentColor"/>
<path d="M7.68659 1.9375C5.83709 1.9375 4.33203 3.44256 4.33203 5.29206C4.33203 7.14155 5.83709 8.64661 7.68659 8.64661C9.53609 8.64661 11.0411 7.14155 11.0411 5.29206C11.0411 3.44256 9.53609 1.9375 7.68659 1.9375ZM7.68659 7.68817C6.36545 7.68817 5.29048 6.61319 5.29048 5.29206C5.29048 3.97092 6.36545 2.89594 7.68659 2.89594C9.00772 2.89594 10.0827 3.97092 10.0827 5.29206C10.0827 6.61319 9.00772 7.68817 7.68659 7.68817Z" fill="currentColor" />
</g>
<defs>
<clipPath id="clip0_629_171570">
<rect width="23" height="23" fill="currentColor" transform="translate(0.5 0.5)"/>
</clipPath>
</defs>
</svg>
