<svg width="19" height="18" viewBox="0 0 19 18" fill="none" xmlns="http://www.w3.org/2000/svg">
<path d="M5.65306 5.78511C5.48055 5.61298 5.48017 5.33351 5.6523 5.161C5.82444 4.98849 6.10391 4.98811 6.27642 5.16025L5.65306 5.78511ZM12.7236 12.8398L5.65306 5.78511L6.27642 5.16025L13.347 12.2149L12.7236 12.8398ZM13.347 12.2149C13.5195 12.3871 13.5199 12.6666 13.3478 12.8391C13.1756 13.0116 12.8962 13.0119 12.7236 12.8398L13.347 12.2149ZM6.28511 12.847C6.11298 13.0195 5.83351 13.0199 5.661 12.8478C5.48849 12.6756 5.48812 12.3961 5.66025 12.2236L6.28511 12.847ZM13.3398 5.77641L6.28511 12.847L5.66025 12.2236L12.7149 5.15305L13.3398 5.77641ZM12.7149 5.15305C12.8871 4.98054 13.1665 4.98017 13.3391 5.15231C13.5116 5.32444 13.5119 5.60391 13.3398 5.77641L12.7149 5.15305Z" fill="currentColor" />
<path fill-rule="evenodd" clip-rule="evenodd" d="M9.5 16.1174C11.4655 16.1174 13.2449 15.3208 14.5328 14.0329C15.8207 12.7449 16.6174 10.9655 16.6174 9C16.6174 7.03459 15.8207 5.25514 14.5328 3.96719C13.2449 2.67931 11.4655 1.88263 9.5 1.88263C7.53453 1.88263 5.75507 2.67931 4.46719 3.96719C3.17931 5.25507 2.38263 7.03453 2.38263 9C2.38263 10.9655 3.17931 12.7449 4.46719 14.0329C5.75507 15.3208 7.53453 16.1174 9.5 16.1174ZM9.5 17.0001C13.9183 17.0001 17.5 13.4183 17.5 9C17.5 4.58174 13.9183 1 9.5 1C5.08167 1 1.5 4.58174 1.5 9C1.5 13.4183 5.08167 17.0001 9.5 17.0001Z" fill="currentColor" />
</svg>
