<svg width="19" height="18" viewBox="0 0 19 18" fill="none" xmlns="http://www.w3.org/2000/svg">
<path fill-rule="evenodd" clip-rule="evenodd" d="M17.3869 0V18H2.55183V13.8824H2.02202C1.72955 13.8824 1.49219 13.6452 1.49219 13.3529C1.49219 13.0607 1.72955 12.8235 2.02202 12.8235H2.55183V9.64706H2.02202C1.72955 9.64706 1.49219 9.40988 1.49219 9.11765C1.49219 8.82541 1.72955 8.58824 2.02202 8.58824H2.55183V5.41176H2.02202C1.72955 5.41176 1.49219 5.17458 1.49219 4.88235C1.49219 4.59011 1.72955 4.35293 2.02202 4.35293H2.55183V0H17.3869ZM16.3273 1.05882H3.61149V4.35294H4.14132C4.43378 4.35294 4.67114 4.59012 4.67114 4.88235C4.67114 5.17459 4.43378 5.41176 4.14132 5.41176H3.61149V8.58823H4.14132C4.43378 8.58823 4.67114 8.82542 4.67114 9.11765C4.67114 9.40988 4.43378 9.64705 4.14132 9.64705H3.61149V12.8235H4.14132C4.43378 12.8235 4.67114 13.0607 4.67114 13.3529C4.67114 13.6452 4.43378 13.8824 4.14132 13.8824H3.61149V16.9412H16.3273V1.05881L16.3273 1.05882ZM6.50114 3.98626H13.5194V5.04507H6.50113L6.50114 3.98626ZM6.50114 6.00029H12.4959V7.0591H6.50113L6.50114 6.00029ZM6.50114 11.0145H13.5194V12.0733H6.50113L6.50114 11.0145ZM6.50114 13.0285H12.4959V14.0873H6.50113L6.50114 13.0285Z" fill="#050505"/>
</svg>
