<svg width="10" height="8" viewBox="0 0 10 8" fill="none" xmlns="http://www.w3.org/2000/svg">
<path d="M4.00409 7.50409C3.87249 7.50485 3.74202 7.47963 3.62019 7.42986C3.49835 7.3801 3.38753 7.30677 3.29409 7.21409L0.294092 4.21409C0.200853 4.12085 0.126893 4.01016 0.0764322 3.88834C0.0259719 3.76652 0 3.63595 0 3.50409C0 3.23779 0.105788 2.98239 0.294092 2.79409C0.482395 2.60579 0.73779 2.5 1.00409 2.5C1.27039 2.5 1.52579 2.60579 1.71409 2.79409L4.00409 5.09409L8.29409 0.794091C8.4824 0.605788 8.73779 0.5 9.00409 0.5C9.27039 0.5 9.52579 0.605788 9.71409 0.794091C9.90239 0.982395 10.0082 1.23779 10.0082 1.50409C10.0082 1.77039 9.90239 2.02579 9.71409 2.21409L4.71409 7.21409C4.62065 7.30677 4.50984 7.3801 4.388 7.42986C4.26616 7.47963 4.1357 7.50485 4.00409 7.50409Z" fill="white"/>
</svg>
