<svg width="30" height="31" viewBox="0 0 30 31" fill="none" xmlns="http://www.w3.org/2000/svg">
<path d="M15 1.32812C12.2311 1.32812 9.52431 2.14921 7.22202 3.68755C4.91973 5.22589 3.12532 7.41239 2.06569 9.97056C1.00607 12.5287 0.728819 15.3437 1.26901 18.0594C1.80921 20.7751 3.14258 23.2697 5.10051 25.2276C7.05844 27.1856 9.55301 28.5189 12.2687 29.0591C14.9845 29.5993 17.7994 29.3221 20.3576 28.2624C22.9157 27.2028 25.1022 25.4084 26.6406 23.1061C28.1789 20.8038 29 18.0971 29 15.3281C29 11.6151 27.525 8.05414 24.8995 5.42863C22.274 2.80312 18.713 1.32813 15 1.32812Z" stroke="white" stroke-width="2" stroke-linecap="round" stroke-linejoin="round"/>
</svg>
