<svg width="31" height="31" viewBox="0 0 31 31" fill="none" xmlns="http://www.w3.org/2000/svg">
<path fill-rule="evenodd" clip-rule="evenodd" d="M22.9238 8.07418C23.1191 8.26944 23.1111 8.59394 22.9061 8.79897L8.79933 22.9057C8.59431 23.1108 8.26981 23.1187 8.07455 22.9234C7.87929 22.7282 7.8872 22.4037 8.09223 22.1986L22.199 8.09186C22.404 7.88683 22.7285 7.87892 22.9238 8.07418Z" fill="white"/>
<path fill-rule="evenodd" clip-rule="evenodd" d="M22.9239 22.9238C22.7286 23.1191 22.4041 23.1111 22.1991 22.9061L8.0923 8.79933C7.88728 8.59431 7.87936 8.26981 8.07462 8.07455C8.26989 7.87929 8.59438 7.8872 8.79941 8.09223L22.9062 22.199C23.1112 22.404 23.1191 22.7285 22.9239 22.9238Z" fill="white"/>
</svg>
