<svg width="26" height="23" viewBox="0 0 26 23" fill="none" xmlns="http://www.w3.org/2000/svg">
<path d="M7.86719 11.2675C7.86719 11.6078 8.00238 11.9342 8.24301 12.1748C8.48365 12.4155 8.81002 12.5507 9.15034 12.5507C9.49065 12.5507 9.81702 12.4155 10.0577 12.1748C10.2983 11.9342 10.4335 11.6078 10.4335 11.2675C10.4335 10.9272 10.2983 10.6008 10.0577 10.3602C9.81702 10.1196 9.49065 9.98438 9.15034 9.98438C8.81002 9.98438 8.48365 10.1196 8.24301 10.3602C8.00238 10.6008 7.86719 10.9272 7.86719 11.2675Z" stroke="#1E1E1E" stroke-linecap="round" stroke-linejoin="round"/>
<path d="M15.5664 11.2675C15.5664 11.6078 15.7016 11.9342 15.9422 12.1748C16.1829 12.4155 16.5092 12.5507 16.8496 12.5507C17.1899 12.5507 17.5162 12.4155 17.7569 12.1748C17.9975 11.9342 18.1327 11.6078 18.1327 11.2675C18.1327 10.9272 17.9975 10.6008 17.7569 10.3602C17.5162 10.1196 17.1899 9.98438 16.8496 9.98438C16.5092 9.98438 16.1829 10.1196 15.9422 10.3602C15.7016 10.6008 15.5664 10.9272 15.5664 11.2675Z" stroke="#1E1E1E" stroke-linecap="round" stroke-linejoin="round"/>
<path d="M17.491 17.6809C17.491 18.9641 19.4157 21.5304 20.0573 21.5304C21.982 21.5304 23.6925 19.3914 24.5483 17.6809C25.4042 15.5419 25.1899 10.1963 22.6236 2.92472C20.7541 1.62233 18.7742 1.2053 16.8494 1L15.6022 3.46749C13.8814 3.17044 12.1224 3.17044 10.4016 3.46749L9.15056 1C7.22583 1.2053 5.24594 1.62233 3.37639 2.92472C0.810094 10.1963 0.595808 15.5419 1.45167 17.6809C2.30753 19.3914 4.01796 21.5304 5.94269 21.5304C6.58426 21.5304 8.50898 18.9641 8.50898 17.6809" stroke="#1E1E1E" stroke-linecap="round" stroke-linejoin="round"/>
<path d="M6.58594 17.0391C11.077 18.3222 14.9264 18.3222 19.4174 17.0391" stroke="#1E1E1E" stroke-linecap="round" stroke-linejoin="round"/>
</svg>
