<svg width="22" height="24" viewBox="0 0 22 24" fill="none" xmlns="http://www.w3.org/2000/svg">
<g clip-path="url(#clip0_629_182810)">
<path d="M18.3886 4.15704C17.0041 3.45516 15.5195 2.93804 13.9672 2.64187C13.9389 2.63615 13.9107 2.65044 13.8961 2.67901C13.7052 3.05422 13.4937 3.54372 13.3456 3.92846C11.676 3.65229 10.0149 3.65229 8.37957 3.92846C8.23143 3.53517 8.01225 3.05422 7.82045 2.67901C7.80589 2.65139 7.77765 2.6371 7.74938 2.64187C6.19794 2.93709 4.71328 3.45421 3.32794 4.15704C3.31594 4.16275 3.30567 4.17228 3.29884 4.18466C0.482765 8.83302 -0.288677 13.3671 0.0897664 17.845C0.0914788 17.8669 0.102609 17.8879 0.118021 17.9012C1.97599 19.4087 3.77575 20.3239 5.54209 20.9306C5.57036 20.9401 5.60031 20.9287 5.6183 20.903C6.03612 20.2725 6.40858 19.6078 6.72793 18.9088C6.74677 18.8678 6.72878 18.8192 6.69026 18.8031C6.09949 18.5555 5.53695 18.2536 4.99582 17.9107C4.95302 17.8831 4.9496 17.8155 4.98897 17.7831C5.10284 17.6888 5.21675 17.5907 5.32548 17.4917C5.34515 17.4736 5.37256 17.4698 5.39569 17.4812C8.95064 19.2745 12.7993 19.2745 16.3123 17.4812C16.3354 17.4688 16.3628 17.4726 16.3834 17.4907C16.4921 17.5898 16.606 17.6888 16.7207 17.7831C16.7601 17.8155 16.7575 17.8831 16.7147 17.9107C16.1736 18.2602 15.6111 18.5555 15.0194 18.8021C14.9809 18.8183 14.9638 18.8678 14.9826 18.9088C15.3088 19.6068 15.6813 20.2716 16.0914 20.902C16.1085 20.9287 16.1393 20.9401 16.1676 20.9306C17.9425 20.3239 19.7423 19.4087 21.6002 17.9012C21.6165 17.8879 21.6268 17.8679 21.6285 17.846C22.0814 12.669 20.8699 8.1721 18.4169 4.1856C18.4109 4.17228 18.4006 4.16275 18.3886 4.15704ZM7.2588 15.1184C6.18852 15.1184 5.30663 14.0328 5.30663 12.6995C5.30663 11.3662 6.17141 10.2806 7.2588 10.2806C8.35472 10.2806 9.22807 11.3758 9.21094 12.6995C9.21094 14.0328 8.34616 15.1184 7.2588 15.1184ZM14.4766 15.1184C13.4063 15.1184 12.5245 14.0328 12.5245 12.6995C12.5245 11.3662 13.3892 10.2806 14.4766 10.2806C15.5726 10.2806 16.4459 11.3758 16.4288 12.6995C16.4288 14.0328 15.5726 15.1184 14.4766 15.1184Z" fill="#5865F2"/>
</g>
<defs>
<clipPath id="clip0_629_182810">
<rect width="21.722" height="24" fill="white"/>
</clipPath>
</defs>
</svg>
