<svg width="30" height="30" viewBox="0 0 30 30" fill="none" xmlns="http://www.w3.org/2000/svg">
<path d="M13.75 2.5H11.25C5 2.5 2.5 5 2.5 11.25V18.75C2.5 25 5 27.5 11.25 27.5H18.75C25 27.5 27.5 25 27.5 18.75V16.25" stroke="#0862E0" stroke-linecap="round" stroke-linejoin="round"/>
<path d="M20.0513 3.77654L10.2013 13.6265C9.82631 14.0015 9.45131 14.739 9.37631 15.2765L8.83881 19.039C8.63881 20.4015 9.60131 21.3515 10.9638 21.164L14.7263 20.6265C15.2513 20.5515 15.9888 20.1765 16.3763 19.8015L26.2263 9.95154C27.9263 8.25154 28.7263 6.27654 26.2263 3.77654C23.7263 1.27654 21.7513 2.07654 20.0513 3.77654Z" stroke="#0862E0" stroke-miterlimit="10" stroke-linecap="round" stroke-linejoin="round"/>
<path d="M18.6367 5.1875C19.4742 8.175 21.8117 10.5125 24.8117 11.3625" stroke="#0862E0" stroke-miterlimit="10" stroke-linecap="round" stroke-linejoin="round"/>
</svg>
