<svg width="21" height="20" viewBox="0 0 21 20" fill="none" xmlns="http://www.w3.org/2000/svg">
<path d="M10.5531 6.00781H10.4531" stroke="black" stroke-width="3" stroke-linecap="round" stroke-linejoin="round"/>
<path d="M10.5023 14.0086V11.0086M1.6223 11.4786C1.85545 12.8769 2.41561 14.2003 3.25714 15.3411C4.09867 16.4819 5.19777 17.4077 6.46491 18.0433C7.73205 18.6788 9.13139 19.006 10.5489 18.9982C11.9665 18.9905 13.3622 18.648 14.6223 17.9986L18.0123 18.6986C18.1743 18.7318 18.342 18.7242 18.5003 18.6766C18.6587 18.629 18.8027 18.5429 18.9197 18.426C19.0366 18.3091 19.1227 18.165 19.1703 18.0067C19.2178 17.8483 19.2254 17.6806 19.1923 17.5186L18.5023 14.1186C19.1544 12.8517 19.4963 11.4481 19.5 10.0232C19.5036 8.59835 19.169 7.19297 18.5234 5.9227C17.8779 4.65243 16.94 3.55358 15.7869 2.71656C14.6338 1.87954 13.2984 1.32827 11.8907 1.10809C10.4829 0.887922 9.04299 1.00515 7.68938 1.45012C6.33577 1.8951 5.10715 2.65511 4.10461 3.66762C3.10207 4.68014 2.35427 5.91622 1.92271 7.27417C1.49116 8.63212 1.3882 10.0731 1.6223 11.4786Z" stroke="black" stroke-width="2" stroke-linecap="round" stroke-linejoin="round"/>
</svg>
