<svg width="20" height="21" viewBox="0 0 20 21" fill="none" xmlns="http://www.w3.org/2000/svg">
<path d="M15 10.5C15 10.5 12.76 13.5 10 13.5C7.24 13.5 5 10.5 5 10.5C5 10.5 7.24 7.5 10 7.5C12.76 7.5 15 10.5 15 10.5ZM10 1.5C8.21997 1.5 6.47991 2.02784 4.99987 3.01677C3.51983 4.00571 2.36628 5.41131 1.68509 7.05585C1.0039 8.70038 0.82567 10.51 1.17294 12.2558C1.5202 14.0016 2.37737 15.6053 3.63604 16.864C4.89472 18.1226 6.49836 18.9798 8.24419 19.3271C9.99002 19.6743 11.7996 19.4961 13.4442 18.8149C15.0887 18.1337 16.4943 16.9802 17.4832 15.5001C18.4722 14.0201 19 12.28 19 10.5C19 8.11305 18.0518 5.82387 16.364 4.13604C14.6761 2.44821 12.387 1.5 10 1.5V1.5Z" stroke="currentColor" stroke-width="2" stroke-linecap="round" stroke-linejoin="round"/>
<path d="M10.0492 10.5H9.94922" stroke="currentColor" stroke-width="3" stroke-linecap="round" stroke-linejoin="round"/>
</svg>
