<svg width="13" height="13" viewBox="0 0 13 13" fill="none" xmlns="http://www.w3.org/2000/svg">
<path fill-rule="evenodd" clip-rule="evenodd" d="M2.82283 1.51118C3.80953 0.851894 4.96956 0.5 6.15625 0.5C7.74755 0.5 9.27367 1.13214 10.3989 2.25736C11.5241 3.38258 12.1562 4.9087 12.1562 6.5C12.1562 7.68669 11.8044 8.84672 11.1451 9.83342C10.4858 10.8201 9.54871 11.5891 8.45235 12.0433C7.35599 12.4974 6.1496 12.6162 4.98571 12.3847C3.82182 12.1532 2.75273 11.5818 1.91361 10.7426C1.0745 9.90352 0.503052 8.83443 0.271541 7.67054C0.0400297 6.50665 0.15885 5.30025 0.612975 4.2039C1.0671 3.10754 1.83614 2.17047 2.82283 1.51118ZM6.15625 1.21642C5.11126 1.21642 4.08973 1.52629 3.22085 2.10686C2.35197 2.68743 1.67476 3.51261 1.27486 4.47806C0.874957 5.44351 0.770325 6.50586 0.974193 7.53077C1.17806 8.55569 1.68127 9.49713 2.4202 10.2361C3.15912 10.975 4.10056 11.4782 5.12548 11.6821C6.15039 11.8859 7.21274 11.7813 8.17819 11.3814C9.14364 10.9815 9.96882 10.3043 10.5494 9.4354C11.13 8.56652 11.4398 7.54499 11.4398 6.5C11.4398 5.09871 10.8832 3.75481 9.89231 2.76394C8.90144 1.77308 7.55754 1.21642 6.15625 1.21642ZM3.48643 6.5C3.50159 6.51728 3.51766 6.53538 3.53462 6.55421C3.68476 6.72104 3.9018 6.94317 4.16885 7.16449C4.71315 7.61557 5.4159 8.02239 6.15625 8.02239C6.8966 8.02239 7.59935 7.61557 8.14365 7.16449C8.41071 6.94317 8.62775 6.72104 8.77789 6.55421C8.79484 6.53538 8.81091 6.51728 8.82608 6.5C8.81091 6.48272 8.79484 6.46462 8.77789 6.44578C8.62775 6.27896 8.41071 6.05682 8.14365 5.83551C7.59935 5.38443 6.8966 4.97761 6.15625 4.97761C5.4159 4.97761 4.71315 5.38443 4.16885 5.83551C3.9018 6.05682 3.68476 6.27896 3.53462 6.44578C3.51766 6.46462 3.50159 6.48272 3.48643 6.5ZM9.29058 6.5C9.5776 6.28569 9.57754 6.2856 9.57747 6.2855L9.57685 6.28468L9.57558 6.28298L9.57148 6.27759C9.57013 6.27581 9.56856 6.27376 9.56678 6.27144C9.56408 6.26791 9.56088 6.26377 9.5572 6.25904C9.545 6.24335 9.52748 6.22113 9.50489 6.19333C9.45974 6.13775 9.39421 6.05965 9.3104 5.96653C9.14319 5.78074 8.90105 5.53273 8.60079 5.28389C8.01046 4.79467 7.14605 4.26119 6.15625 4.26119C5.16645 4.26119 4.30204 4.79467 3.71171 5.28389C3.41145 5.53273 3.16931 5.78074 3.00211 5.96653C2.91829 6.05965 2.85276 6.13775 2.80761 6.19333C2.78502 6.22113 2.7675 6.24335 2.7553 6.25904C2.7492 6.26689 2.74443 6.27311 2.74102 6.27759L2.73693 6.28298L2.73565 6.28468L2.73521 6.28527C2.73514 6.28537 2.7349 6.28569 3.02192 6.5L2.7349 6.28569C2.63999 6.4128 2.63999 6.5872 2.7349 6.71431L3.02192 6.5C2.7349 6.71431 2.73483 6.71421 2.7349 6.71431L2.73565 6.71532L2.73693 6.71701L2.74102 6.72241C2.74443 6.72689 2.7492 6.73311 2.7553 6.74096C2.7675 6.75665 2.78502 6.77887 2.80761 6.80667C2.85276 6.86225 2.91829 6.94035 3.00211 7.03347C3.16931 7.21926 3.41145 7.46727 3.71171 7.7161C4.30204 8.20533 5.16645 8.7388 6.15625 8.7388C7.14605 8.7388 8.01046 8.20533 8.60079 7.7161C8.90105 7.46727 9.14319 7.21926 9.3104 7.03347C9.39421 6.94035 9.45974 6.86225 9.50489 6.80667C9.52748 6.77887 9.545 6.75665 9.5572 6.74096C9.5633 6.73311 9.56807 6.72689 9.57148 6.72241L9.57558 6.71701L9.57685 6.71532L9.57729 6.71473C9.57736 6.71463 9.5776 6.71431 9.29058 6.5ZM9.29058 6.5L9.5776 6.71431C9.67252 6.5872 9.67238 6.41261 9.57747 6.2855L9.29058 6.5Z" fill="#999999"/>
<path d="M6.18769 6.5H6.125" stroke="#999999" stroke-width="3" stroke-linecap="round" stroke-linejoin="round"/>
</svg>
