<svg width="21" height="21" viewBox="0 0 21 21" fill="none" xmlns="http://www.w3.org/2000/svg">
<path fill-rule="evenodd" clip-rule="evenodd" d="M4.61096 1.8735C6.31712 0.733483 8.32302 0.125 10.375 0.125C13.1266 0.125 15.7655 1.21808 17.7112 3.16377C19.6569 5.10946 20.75 7.74838 20.75 10.5C20.75 12.552 20.1415 14.5579 19.0015 16.264C17.8615 17.9702 16.2411 19.3 14.3453 20.0852C12.4496 20.8705 10.3635 21.076 8.35094 20.6756C6.33839 20.2753 4.48974 19.2872 3.03877 17.8362C1.5878 16.3853 0.599679 14.5366 0.199357 12.5241C-0.200964 10.5115 0.00449529 8.42544 0.789754 6.52966C1.57501 4.63388 2.9048 3.01352 4.61096 1.8735ZM10.375 1.36381C8.56803 1.36381 6.80164 1.89963 5.29921 2.90353C3.79677 3.90743 2.62576 5.33431 1.93426 7.00373C1.24276 8.67315 1.06184 10.5101 1.41436 12.2824C1.76688 14.0546 2.63702 15.6825 3.91474 16.9603C5.19246 18.238 6.82037 19.1081 8.59262 19.4606C10.3649 19.8132 12.2018 19.6322 13.8713 18.9407C15.5407 18.2492 16.9676 17.0782 17.9715 15.5758C18.9754 14.0734 19.5112 12.307 19.5112 10.5C19.5112 8.07693 18.5486 5.7531 16.8353 4.03973C15.1219 2.32637 12.7981 1.36381 10.375 1.36381ZM5.75843 10.5C5.78465 10.5299 5.81244 10.5612 5.84176 10.5937C6.10138 10.8822 6.47668 11.2663 6.93846 11.649C7.87964 12.429 9.09481 13.1325 10.375 13.1325C11.6552 13.1325 12.8704 12.429 13.8115 11.649C14.2733 11.2663 14.6486 10.8822 14.9082 10.5937C14.9376 10.5612 14.9654 10.5299 14.9916 10.5C14.9654 10.4701 14.9376 10.4388 14.9082 10.4063C14.6486 10.1178 14.2733 9.73367 13.8115 9.35098C12.8704 8.57099 11.6552 7.86754 10.375 7.86754C9.09481 7.86754 7.87964 8.57099 6.93846 9.35098C6.47668 9.73367 6.10138 10.1178 5.84176 10.4063C5.81244 10.4388 5.78465 10.4701 5.75843 10.5ZM15.7948 10.5C16.2911 10.1294 16.291 10.1293 16.2908 10.1291L16.2898 10.1277L16.2876 10.1247L16.2805 10.1154C16.2782 10.1123 16.2755 10.1088 16.2724 10.1048C16.2677 10.0987 16.2622 10.0915 16.2558 10.0833C16.2347 10.0562 16.2044 10.0178 16.1654 9.96971C16.0873 9.87361 15.974 9.73856 15.829 9.57753C15.5399 9.25628 15.1212 8.82742 14.602 8.39715C13.5812 7.5512 12.0865 6.62873 10.375 6.62873C8.66347 6.62873 7.16876 7.5512 6.14799 8.39715C5.62879 8.82742 5.21009 9.25628 4.92096 9.57753C4.77603 9.73856 4.66272 9.87361 4.58465 9.96971C4.54559 10.0178 4.51529 10.0562 4.49419 10.0833C4.48365 10.0969 4.47539 10.1077 4.4695 10.1154L4.46242 10.1247L4.46022 10.1277L4.45945 10.1287C4.45933 10.1289 4.45891 10.1294 4.95523 10.5L4.45891 10.1294C4.2948 10.3492 4.2948 10.6508 4.45891 10.8706L4.95523 10.5C4.45891 10.8706 4.45879 10.8704 4.45891 10.8706L4.46022 10.8723L4.46242 10.8753L4.4695 10.8846C4.47539 10.8923 4.48365 10.9031 4.49419 10.9167C4.51529 10.9438 4.54559 10.9822 4.58465 11.0303C4.66272 11.1264 4.77603 11.2614 4.92096 11.4225C5.21009 11.7437 5.62879 12.1726 6.14799 12.6028C7.16876 13.4488 8.66347 14.3713 10.375 14.3713C12.0865 14.3713 13.5812 13.4488 14.602 12.6028C15.1212 12.1726 15.5399 11.7437 15.829 11.4225C15.974 11.2614 16.0873 11.1264 16.1654 11.0303C16.2044 10.9822 16.2347 10.9438 16.2558 10.9167C16.2664 10.9031 16.2746 10.8923 16.2805 10.8846L16.2876 10.8753L16.2898 10.8723L16.2906 10.8713C16.2907 10.8711 16.2911 10.8706 15.7948 10.5ZM15.7948 10.5L16.2911 10.8706C16.4552 10.6508 16.455 10.3489 16.2908 10.1291L15.7948 10.5Z" fill="black"/>
<path d="M10.4287 10.5H10.3203" stroke="black" stroke-width="3" stroke-linecap="round" stroke-linejoin="round"/>
</svg>
