<svg width="21" height="22" viewBox="0 0 21 22" fill="none" xmlns="http://www.w3.org/2000/svg">
<path d="M16.9701 0.805176H4.20013C2.10013 0.805176 0.390137 2.51518 0.390137 4.61518V17.3852C0.390137 19.4852 2.10013 21.1952 4.20013 21.1952H16.9701C19.0701 21.1952 20.7801 19.4852 20.7801 17.3852V4.61518C20.7801 2.51518 19.0701 0.805176 16.9701 0.805176ZM19.2801 17.3852C19.2801 18.6652 18.2401 19.6952 16.9701 19.6952H4.20013C2.92013 19.6952 1.89014 18.6552 1.89014 17.3852V4.61518C1.89014 3.33518 2.93013 2.30518 4.20013 2.30518H16.9701C18.2501 2.30518 19.2801 3.34518 19.2801 4.61518V17.3852Z" fill="#003386"/>
<path d="M13.8998 8.71479H8.27979V6.90479H14.1098C14.6598 6.90479 15.1098 6.45479 15.1098 5.90479C15.1098 5.35479 14.6598 4.90479 14.1098 4.90479H7.27979C6.72979 4.90479 6.27979 5.35479 6.27979 5.90479V15.6348C6.27979 16.1848 6.72979 16.6348 7.27979 16.6348C7.82979 16.6348 8.27979 16.1848 8.27979 15.6348V10.7148H13.8998C14.4498 10.7148 14.8998 10.2648 14.8998 9.71479C14.8998 9.16479 14.4498 8.71479 13.8998 8.71479Z" fill="#003386"/>
</svg>
