<svg width="15" height="17" viewBox="0 0 15 17" fill="none" xmlns="http://www.w3.org/2000/svg">
<path d="M8.79878 13.5041C8.79878 13.9362 8.51537 14.5028 8.15412 14.7224L7.15545 15.367C6.22753 15.9407 4.93833 15.2962 4.93833 14.1487V10.3591C4.93833 9.85616 4.655 9.21158 4.36458 8.85741L1.64456 5.99575C1.28331 5.6345 1 4.997 1 4.56492V2.92158C1 2.0645 1.6446 1.41992 2.43085 1.41992H11.88C12.6662 1.41992 13.3109 2.0645 13.3109 2.85075V4.42325C13.3109 4.997 12.9496 5.71242 12.5954 6.06659" stroke="white" stroke-width="1.5" stroke-miterlimit="10" stroke-linecap="round" stroke-linejoin="round"/>
<path d="M10.0401 11.6974C11.2919 11.6974 12.3068 10.6826 12.3068 9.43073C12.3068 8.17889 11.2919 7.16406 10.0401 7.16406C8.78827 7.16406 7.77344 8.17889 7.77344 9.43073C7.77344 10.6826 8.78827 11.6974 10.0401 11.6974Z" stroke="white" stroke-width="1.5" stroke-linecap="round" stroke-linejoin="round"/>
<path d="M12.7318 12.1224L12.0234 11.4141" stroke="white" stroke-width="1.5" stroke-linecap="round" stroke-linejoin="round"/>
</svg>
