<svg width="1920" height="721" viewBox="0 0 1920 721" fill="none" xmlns="http://www.w3.org/2000/svg">
<path d="M1663.35 491.798C1414.37 453.283 1702.14 426.247 1314.28 431.715C1280.99 439.707 1110.57 407.263 1021.03 349.546C918.186 283.255 801.429 289.755 657.121 314.818C456.018 349.744 463.038 296.94 433.936 296.135C293.937 292.263 196.714 373.106 2.5 388.5V414V444.498C2.5 444.498 5.12415 713.95 2.5 734.997C687.114 737.651 1240.89 734.847 1925.5 737.5C1918.94 714.231 1669.9 515.067 1663.35 491.798Z" fill="#C5DCFF"/>
<g filter="url(#filter0_f_344_19250)">
<circle cx="1678.9" cy="186.094" r="40.016" fill="#D9D9D9" fill-opacity="0.7"/>
</g>
<path d="M1831.96 455.499C1830.2 447.007 1828.34 438.539 1826.51 430.064C1825.83 426.099 1825.5 422.07 1824.06 418.263C1823.97 417.097 1824 415.908 1823.78 414.772C1820.33 396.921 1817.51 378.976 1815.76 360.879C1815.84 359.251 1815.87 357.635 1815.16 356.106C1815.21 347.708 1815.68 339.485 1817.53 331.11C1820.73 316.638 1818.71 301.891 1816.67 287.314C1816.83 286.254 1816.63 285.276 1816.03 284.386C1815.87 282.781 1815.83 281.153 1815.54 279.571C1813.65 269.439 1810.57 259.378 1809.98 249.175C1807.82 212.214 1810.7 175.352 1814.58 138.637C1817.44 111.679 1816.37 85.0311 1812.46 58.3306C1810.32 43.7827 1802.8 34.3769 1788.25 30.8277C1785.39 30.1308 1782.59 29.141 1779.83 28.1103C1777.06 27.0795 1774.28 25.9374 1772.38 23.5128C1769.56 19.9168 1765.77 17.9724 1761.48 16.6254C1746.89 12.0338 1731.49 9.75552 1718.1 1.67334C1713.46 -0.827454 1708.82 -0.253502 1704.16 1.61477C1697.19 3.28977 1691.18 6.76862 1685.71 11.2782H1685.7C1683.28 12.2329 1681.31 13.8083 1679.54 15.6649L1677.99 17.703C1678.15 17.867 1678.21 18.0661 1678.25 18.2828C1678.16 18.0895 1678.08 17.8963 1677.99 17.703C1677.89 18.2359 1677.8 18.763 1677.7 19.296C1677.51 19.2257 1677.31 19.1847 1677.1 19.1847C1677.2 19.337 1677.3 19.4951 1677.41 19.6474C1677.28 19.5068 1677.18 19.3604 1677.1 19.1847C1675.29 18.4526 1674.29 19.0266 1674.16 20.9944C1672.29 24.6724 1673.56 28.2742 1674.44 31.8819C1674.92 33.6682 1675.52 35.5189 1672.58 35.6126C1671.47 36.0987 1669.81 36.1749 1670.66 38.1369C1670.39 38.4355 1670.11 38.7342 1669.83 39.0388C1666.81 39.1501 1667.02 40.7606 1668.11 42.7636C1668.09 43.4371 1668.08 44.1165 1668.06 44.79C1666.07 47.3201 1668.65 47.9936 1669.88 49.2118L1669.86 49.6452C1670.51 50.5998 1671.36 51.2323 1672.54 51.3495L1673.46 53.0596C1673.14 54.2602 1672.81 55.4608 1672.49 56.6673C1672.78 58.395 1673.08 60.1227 1673.38 61.8446C1673.1 62.1901 1672.83 62.5357 1672.55 62.8812C1673.65 64.2399 1672.85 65.8681 1673.18 67.3323C1673.25 67.6719 1673.31 68.0116 1673.38 68.3513C1674.09 70.4597 1671.28 72.5154 1673.29 74.6414L1673.39 77.0192C1672.75 77.4057 1672.61 77.7512 1673.48 78.0089C1673.41 78.2783 1673.41 78.5419 1673.46 78.8113C1673.42 79.9651 1673.39 81.113 1673.35 82.2667C1672.75 82.6533 1672.52 83.0164 1673.4 83.3268C1673.38 83.5903 1673.41 83.8539 1673.47 84.1116C1672.89 85.2595 1672.66 86.4191 1673.36 87.608C1671.76 88.2932 1673.65 88.8496 1673.43 89.4821C1673.42 90.671 1673.42 91.8599 1673.41 93.0488L1673.39 94.8995C1673.33 96.3637 1673.14 97.8571 1674.25 99.0812C1673.06 98.9699 1672.91 99.784 1672.81 100.657C1672.89 101.623 1672.97 102.583 1673.05 103.55C1672.26 105.389 1673.42 107.175 1673.2 108.996C1672.95 109.565 1672.71 110.133 1672.46 110.701C1670.93 111.562 1669.02 112.253 1670.73 114.554C1670.76 115.164 1670.8 115.773 1670.83 116.382C1670.04 118.121 1670.08 119.281 1672.52 118.765C1672.45 119.046 1672.45 119.333 1672.51 119.615C1675.17 121.483 1673.28 123.011 1672.18 124.675C1670.43 127.316 1667.29 129.085 1667.04 132.681C1665.11 132.769 1664.21 133.77 1664.31 135.691C1661.83 136.944 1660.93 139.433 1659.08 141.659C1660.97 141.969 1663.22 141.05 1662.93 143.767C1662.73 145.642 1663.91 147.955 1661.02 149.021C1658.26 150.046 1655.62 151.404 1652.93 152.617C1651.6 152.88 1650.31 153.232 1649.32 154.245C1644.75 156.125 1640.18 158.005 1635 160.137C1638.11 161.097 1641.48 159.17 1642.39 163.106C1648.02 180.366 1653.63 197.637 1660.01 214.65C1660.18 216.577 1661.58 218.826 1658.18 219.623C1657.09 219.875 1657.42 221.427 1657.6 222.399C1657.83 223.611 1658.95 223.248 1659.76 223.301C1663.48 223.541 1667.42 222.44 1670.76 225.069C1673.12 226.832 1675.79 227.676 1678.72 227.769C1679.33 227.781 1679.93 227.799 1680.55 227.81C1684.02 227.676 1687.02 226.733 1688.56 223.23C1691.52 223.301 1691.13 220.08 1692.84 218.926C1693.53 218.68 1694.11 218.311 1694.45 217.678C1694.92 217.731 1695.32 217.585 1695.58 217.028C1696.84 216.115 1698.1 215.195 1699.37 214.281C1700.49 213.473 1700.41 212.296 1700.26 211.154C1700.01 209.221 1698.46 210.422 1697.53 210.1C1697.67 209.385 1697.75 208.653 1697.96 207.956C1703.07 191.253 1708.19 174.556 1713.31 157.859C1714.93 155.106 1718.43 155.551 1720.96 153.607C1710.52 151.053 1700.48 148.593 1690.43 146.139C1690.41 144.142 1690.39 142.151 1690.38 140.154C1691.48 139.205 1692.12 138.602 1690.59 137.091C1686.71 133.237 1683.16 129.05 1679.48 124.997C1679.29 123.597 1678.45 122.982 1677.08 123.017L1677.02 120.587C1677.63 120.575 1677.86 120.165 1677.96 119.65C1678.55 119.351 1679.14 119.046 1679.73 118.748C1681.27 117.061 1682.12 115.269 1680.54 113.137C1679.92 112.311 1679.29 111.491 1678.66 110.666C1678.4 110.121 1678.14 109.576 1677.88 109.037C1680.26 107.661 1679.33 105.676 1678.84 103.778C1678.54 102.876 1680.04 102.004 1678.89 101.09C1678.84 100.194 1678.79 99.2979 1678.74 98.4018C1680.2 97.1719 1680.26 95.983 1678.64 94.8351C1678.68 94.2494 1678.72 93.6638 1678.76 93.0781C1680.14 91.8775 1680.14 90.6944 1678.72 89.529C1678.73 88.9433 1678.75 88.3576 1678.76 87.772C1680.3 86.5069 1679.64 85.3415 1678.61 84.1877C1678.78 82.4014 1680.62 80.5624 1678.43 78.8581C1678.57 78.5829 1678.71 78.3076 1678.85 78.0382C1680.01 76.1817 1680.83 74.4012 1677.76 73.552C1677.82 73.2592 1677.87 72.9664 1677.92 72.6794C1678.22 72.5271 1678.51 72.369 1678.81 72.2167C1679.72 71.1039 1680.12 69.9853 1678.81 68.8667C1678.53 68.6734 1678.25 68.4802 1677.97 68.2869C1677.96 67.8945 1677.94 67.508 1677.93 67.1156L1677.84 66.975C1679.77 66.3073 1680.1 65.1887 1678.82 63.6016C1678.56 63.3907 1678.3 63.1799 1678.04 62.9749L1677.94 62.0378C1679.87 60.5444 1679.75 59.0744 1677.89 57.6278C1677.87 57.335 1677.83 57.0421 1677.79 56.7493C1678.12 56.515 1678.45 56.2749 1678.78 56.0406C1680.04 54.9923 1679.55 53.9322 1678.79 52.8722C1678.71 52.5559 1678.52 52.3802 1678.2 52.3392C1678.36 51.9761 1678.53 51.613 1678.69 51.2499C1679.97 50.7111 1681.4 50.3245 1681.46 48.5558C1682.06 47.8355 1682.65 47.1151 1683.24 46.4006C1683.3 46.0316 1683.32 45.6802 1683.33 45.3464C1683.73 42.2716 1685.36 40.4092 1689.05 40.5439C1689.26 40.5498 1689.48 40.2043 1689.7 40.0227C1693.44 39.6303 1694.71 37.3989 1694.16 33.9318C1693.85 31.9171 1693.49 29.8907 1692.92 27.9346C1691.39 22.6167 1688 21.5625 1683.1 24.7895C1682.83 25.0941 1682.57 25.4045 1682.3 25.709C1678.19 27.8409 1679.75 29.9902 1682.28 32.1396C1682.66 33.5101 1683.35 34.125 1683.93 32.3739C1684.32 31.2026 1684.09 29.8321 1684.15 28.5495L1684.22 28.2977L1683.99 28.1688C1685.66 28.8833 1688.82 27.2318 1688.55 31.0152C1686.93 32.45 1687.89 34.3535 1687.62 36.0343C1687.31 36.3974 1687 36.7605 1686.7 37.1236C1686.45 37.2466 1686.18 37.2818 1685.89 37.2349C1684.39 37.4341 1682.88 36.2686 1681.38 37.2349L1679.63 36.4208C1675.92 34.904 1678.42 31.7531 1677.77 29.428C1677.38 28.8716 1677.35 28.2332 1677.38 27.5832C1677.51 28.1981 1677.64 28.8131 1677.77 29.428C1677.73 27.8467 1678.56 26.0839 1676.81 24.8598C1676.57 24.8364 1676.34 24.7895 1676.12 24.7075C1675.47 22.7749 1677.08 21.7558 1677.88 20.4088C1678.19 20.1335 1678.5 19.8524 1678.82 19.5771C1679.76 19.4541 1680.8 19.5713 1681.4 18.5698C1685.75 16.6195 1690.19 14.8391 1694.41 12.6546C1696.47 11.5886 1699.45 11.8112 1700.4 8.95315L1700.62 9.082L1700.82 8.92973C1702.15 10.0601 1703.4 9.04686 1704.51 8.60176C1708.05 7.17273 1711.58 6.8389 1715.23 8.00438C1724.56 13.2754 1734.69 16.3735 1745.13 18.3472C1751.99 19.6474 1757.98 22.4235 1763.47 26.5348C1764.16 27.9931 1764.78 29.5393 1766.8 29.5276C1767.52 31.4954 1768.8 32.8951 1770.79 33.6741C1774.67 35.191 1778.53 36.8191 1782.72 37.3462C1784.07 38.5234 1785.83 38.4648 1787.44 38.8631C1795.79 39.8353 1799.14 45.5982 1801.38 52.7843C1804.83 63.8885 1804.93 75.391 1806.01 86.7881C1807.37 101.201 1805.44 115.609 1805.97 130.022C1805.91 130.215 1805.86 130.408 1805.82 130.602L1803.62 139.264C1803.17 140.81 1802.49 142.338 1802.33 143.914C1800.99 156.81 1799.86 169.73 1798.46 182.626C1796.4 201.748 1796.19 220.864 1797.64 240.051C1798.74 254.517 1804.14 268.994 1797.99 283.531C1797.89 283.7 1797.83 283.87 1797.79 284.04C1796.75 286.722 1796.29 289.411 1797.92 292.116C1797.6 294.283 1799.93 294.371 1800.88 295.373C1807.15 301.985 1806.53 309.85 1805.57 317.769C1804.7 324.908 1802.81 331.959 1802.45 339.11C1801.39 360.235 1803.04 381.36 1806.77 402.063C1809.87 419.276 1807.01 434.093 1796.41 447.698C1795.41 448.981 1794.44 450.264 1794.41 451.991C1792.35 451.921 1791.79 453.549 1791.02 454.949C1788.94 457.063 1786.21 457.754 1783.34 458.299C1783.91 458.697 1784.44 458.926 1784.99 458.949C1800.07 459.576 1815.16 458.914 1830.24 458.703C1833.31 458.662 1832.22 456.87 1831.95 455.546L1831.96 455.499ZM1684.1 216.144C1683.71 216.325 1683.33 216.554 1683.01 216.841C1678.77 218.762 1674.28 217.333 1669.91 217.766C1667.55 218 1665.04 217.227 1662.86 218.697C1662.86 218.674 1662.86 218.656 1662.87 218.633C1663.32 218.118 1663.44 217.503 1663.38 216.841C1662.96 215.4 1662.85 213.778 1661.36 213.022C1661.41 212.899 1661.46 212.776 1661.51 212.642C1661.65 212.003 1661.65 211.371 1661.5 210.738C1660.59 207.74 1659.52 204.8 1658.56 201.819C1658.09 200.46 1657.62 199.101 1657.19 197.725C1656.84 196.764 1656.55 195.78 1656.23 194.808C1655.35 192.301 1654.51 189.777 1653.69 187.241C1653.33 186.298 1653.03 185.338 1652.7 184.383C1652.36 183.44 1652.08 182.474 1651.76 181.519C1651.15 179.803 1650.58 178.064 1650.04 176.319C1649.41 174.579 1648.83 172.822 1648.28 171.054C1647.46 168.928 1646.94 166.69 1645.78 164.699C1645.41 164.026 1645.02 163.364 1644.55 162.755C1644.92 162.966 1645.29 163.211 1645.66 163.293C1659.86 163.715 1674.09 163.334 1688.31 163.493C1690.2 163.516 1692.18 163.071 1693.96 164.201C1694.13 164.389 1694.28 164.588 1694.43 164.781C1694.18 164.746 1693.94 164.822 1693.73 165.009C1693.54 165.314 1693.44 165.642 1693.46 165.999C1693.53 166.275 1693.68 166.468 1693.9 166.573C1693.8 166.608 1693.69 166.649 1693.58 166.714C1693.35 167.012 1693.18 167.34 1693.08 167.704C1692.79 169.01 1692.93 170.421 1692.19 171.622C1691.88 172.16 1691.58 172.705 1691.37 173.297C1691.16 173.923 1691.03 174.568 1691 175.223C1691.13 178.41 1690.42 181.473 1689.53 184.5C1689.1 186.287 1689.24 188.173 1688.59 189.918C1687.95 194.996 1686.13 199.88 1686.06 205.051C1686.16 205.397 1686.3 205.707 1686.5 205.983C1685.64 206.767 1685.49 207.851 1685.49 208.987C1685.52 209.116 1685.55 209.239 1685.59 209.362C1685.08 209.561 1684.7 209.942 1684.4 210.434C1684.2 210.855 1684.06 211.289 1684 211.746C1683.84 213.362 1683.75 214.961 1684.97 216.284C1685.05 216.372 1685.14 216.489 1685.23 216.601C1684.96 216.601 1684.6 216.466 1684.1 216.144H1684.1ZM1690.33 200.395C1690.33 200.395 1690.33 200.395 1690.33 200.401C1690.33 200.39 1690.33 200.384 1690.33 200.372C1690.33 200.372 1690.33 200.372 1690.33 200.372C1690.33 200.372 1690.33 200.366 1690.33 200.36C1690.33 200.36 1690.33 200.36 1690.33 200.366C1690.34 200.354 1690.35 200.343 1690.36 200.331C1690.35 200.349 1690.35 200.366 1690.33 200.39L1690.33 200.395ZM1710.47 159.165C1709.13 160.318 1709.16 162.286 1708.17 163.651C1707.12 165.361 1707.12 167.37 1706.56 169.22C1706.26 170.439 1706.05 171.68 1705.62 172.863C1705.08 174.638 1704.52 176.412 1703.87 178.152C1703.11 180.061 1702.92 182.158 1701.95 183.997C1701.63 184.547 1701.31 185.104 1701.06 185.689C1700.39 187.323 1700.26 189.098 1699.79 190.761C1697.83 197.572 1696.5 204.612 1692.89 210.873C1692.21 211.388 1691.42 211.705 1690.69 212.138C1690.83 211.769 1690.81 211.377 1690.68 210.961C1690.65 210.902 1690.62 210.85 1690.58 210.791C1690.8 210.276 1690.73 209.807 1690.35 209.385C1691.1 208.729 1691.18 207.868 1691.06 206.955C1690.94 206.516 1690.72 206.141 1690.4 205.819C1692.33 205.608 1692.13 203.956 1692.49 202.679C1692.9 201.11 1693.26 199.529 1693.47 197.918C1695.22 193.379 1695.62 188.547 1696.43 183.809C1696.76 182.503 1697.19 181.221 1697.49 179.909C1697.82 177.074 1698.39 174.281 1698.97 171.493C1699.15 170.597 1699.17 169.718 1698.7 168.887C1698.55 168.764 1698.39 168.641 1698.23 168.518C1698.36 168.471 1698.48 168.412 1698.58 168.324C1700.2 166.591 1699.74 163.633 1702.13 162.356C1702.28 162.04 1702.35 161.706 1702.35 161.367C1703.45 161.413 1704.35 161.056 1705.13 160.43C1705.38 160.4 1705.65 160.353 1705.92 160.277C1706.32 160.271 1706.71 160.23 1707.1 160.137C1708.22 159.762 1709.28 159.206 1710.46 159.159L1710.47 159.165ZM1686.42 26.365C1686.42 26.365 1686.44 26.365 1686.45 26.365C1686.47 26.3825 1686.48 26.4001 1686.5 26.4177C1686.48 26.3943 1686.45 26.3825 1686.42 26.365Z" fill="#97BFFF"/>
<path d="M0 440.063C34.25 439.555 85.78 436.83 147 425.533C199.56 415.834 225.99 405.953 261 396.472C296.84 386.764 424.08 352.308 560 371.951C622.77 381.024 624.66 394.447 757 422.808C797.54 431.499 829.59 437.23 863 441.88C885.19 444.967 914.02 448.409 993 453.686C1094.65 460.47 1145.47 463.866 1188 461.859C1231.54 459.807 1262.69 454.739 1325 444.604C1491.14 417.586 1479 405.185 1578.5 425.533C1628.06 435.668 1630.5 441.88 1699 442.788C1835 441.88 1879.08 438.756 1939 413.727C1939.67 523.314 1940.33 632.892 1941 742.48C1288.67 750.653 636.33 758.827 -16 767C-10.67 658.021 -5.33 549.042 0 440.063Z" fill="#97BFFF"/>
<path d="M1767.05 416.9C1767.05 415.51 1767.68 413.82 1765.9 412.9C1765.62 412.67 1765.34 412.45 1765.07 412.22C1763.89 412.25 1763.46 410.11 1761.94 411.14C1761.15 410.01 1760.68 408.53 1758.96 408.39C1756.97 406.9 1755.14 405.08 1752.96 403.99C1748.63 401.83 1747.66 398.58 1747.76 393.92C1748.07 378.94 1747.67 363.95 1748 348.98C1748.1 344.4 1746.58 343.77 1742.66 344.42C1735.89 345.54 1729.12 345.16 1722.27 344.44C1711.22 343.27 1700.3 340.68 1689.09 341.16C1687.08 339.34 1684.62 340.36 1682.36 340.13C1680.65 339.31 1678.84 339.3 1677.01 339.41C1673.87 339.19 1670.72 338.98 1667.58 338.75C1642.47 336.91 1617.46 338.72 1592.52 341.33C1577.43 342.91 1562.51 346.72 1547.17 344.32C1543.53 343.75 1543.3 345.55 1544.03 348.27C1543.94 350.09 1543.79 351.91 1543.78 353.73C1543.72 369.19 1543.68 384.65 1543.64 400.11C1539.7 403 1535.76 405.89 1531.83 408.78C1530.67 409.22 1529.55 409.71 1528.93 410.89C1527.9 411.63 1526.3 411.66 1525.98 413.27C1523.31 413.91 1524.41 416.14 1524.4 417.7C1524.3 429.52 1524.26 441.34 1524.4 453.15C1524.42 454.88 1522.93 457.74 1525.56 458.27C1528.06 458.77 1531.29 459.66 1533.28 456.57C1533.11 456.42 1532.99 456.25 1532.89 456.08C1533.03 456.24 1533.17 456.41 1533.28 456.57C1533.28 456.57 1533.28 456.56 1533.28 456.55C1534.86 455.24 1534.09 453.45 1534.1 451.89C1534.18 442.74 1534.35 433.59 1534.05 424.46C1533.92 420.51 1534.66 419.08 1539.04 419.11C1543.23 419.14 1544 420.53 1543.8 424.24C1543.51 429.55 1544.1 434.91 1543.61 440.19C1543.2 444.65 1545.3 445.2 1548.72 444.75C1549.69 444.62 1550.64 444.31 1551.61 444.08C1552.25 443.82 1552.38 443.51 1552.01 443.15C1552.01 443.11 1552.01 443.07 1552.03 443.03C1552.24 443.19 1552.52 443.27 1552.87 443.25C1554.34 438.55 1553.32 433.72 1553.47 428.96C1553.71 421.47 1554.8 420.23 1562.17 420.23C1618.08 420.23 1673.99 420.23 1729.9 420.23C1730.57 420.23 1731.23 420.22 1731.9 420.23C1736.53 420.38 1737.63 421.53 1736.85 425.96C1736.12 430.11 1736.37 434.25 1736.52 438.4C1736.6 440.57 1736.94 442.81 1739.69 443.4C1739.73 443.36 1739.75 443.32 1739.78 443.28V443.38C1739.85 443.37 1739.92 443.36 1739.98 443.35C1739.81 443.65 1739.8 443.98 1739.97 444.37C1741.65 446.94 1744.11 446.84 1746.58 446.1C1749.15 445.33 1749.3 442.99 1749.39 440.83C1749.62 435.71 1749.36 430.58 1749.54 425.45C1749.61 423.48 1749.58 421.19 1752.42 421.11C1755.32 421.03 1755.34 423.33 1755.39 425.31C1755.55 430.77 1755.39 436.23 1755.47 441.68C1755.5 443.97 1755.21 446.37 1757.08 448.22C1757.18 450.37 1757.16 452.53 1757.4 454.67C1757.9 458.99 1761.27 458.25 1764.21 458.54C1767.45 458.86 1767.08 456.85 1767.08 454.82C1767.06 442.17 1767.08 429.53 1767.04 416.88L1767.05 416.9ZM1545.53 422.42C1545.53 422.86 1545.53 423.29 1545.53 423.73C1545.53 423.29 1545.53 422.85 1545.53 422.41V422.42ZM1550.95 442.14V442.21C1550.67 442.26 1550.41 442.29 1550.15 442.32C1550.4 442.27 1550.67 442.21 1550.95 442.14ZM1532.53 429.92C1532.53 427.21 1532.53 424.5 1532.53 421.78C1532.53 424.49 1532.53 427.2 1532.53 429.92ZM1563.32 353.47H1627.59C1618.24 356.44 1608.96 359.61 1599.81 363.14C1596.86 364.28 1594.12 364.3 1591.1 363.19C1584.86 360.88 1578.5 358.88 1572.25 356.55C1570.3 355.83 1568.25 354.62 1566.08 356.09C1565.13 355.55 1564.18 355.02 1563.23 354.48C1563.26 354.14 1563.29 353.8 1563.32 353.47ZM1664.95 353.77C1665.61 353.2 1667.18 353.7 1668.33 353.7C1688.51 353.65 1708.68 353.6 1728.86 353.55C1720.63 356.41 1712.08 358.38 1704.32 362.5C1704.13 362.92 1703.9 363.24 1703.66 363.5C1702.7 363.7 1701.74 363.9 1700.86 364.33C1700.3 364.29 1699.73 364.21 1699.17 364.17C1696.64 364.49 1694.28 363.93 1691.87 363.12C1685.11 360.84 1678.39 358.41 1671.66 356.04C1669.88 355.41 1668.01 354.2 1666 355.51C1665.52 354.97 1663.46 355.07 1664.95 353.78V353.77ZM1671.99 385.5C1671.08 385.5 1670.17 385.46 1669.27 385.31C1670.18 385.33 1671.08 385.34 1671.99 385.36C1671.99 385.41 1671.99 385.46 1671.99 385.5ZM1727 377.2C1726.64 374.6 1724.29 374.61 1722.57 373.96C1718.08 372.28 1713.43 371.06 1709.15 369.08C1716.99 366.3 1724.85 363.63 1732.63 360.75C1735.86 359.55 1736.72 360.33 1736.72 363.6C1736.72 369.23 1736.28 374.88 1736.98 380.51C1733.7 379.27 1730.53 377.72 1727.01 377.2H1727ZM1670.99 381.02C1672.19 382.08 1673.51 381.55 1674.71 381.16C1680.17 379.4 1685.59 377.5 1690.78 375.02C1691.1 374.52 1691.44 374.11 1691.82 373.79C1692.63 373.59 1693.45 373.45 1694.19 373.07C1694.64 373.13 1695.11 373.28 1695.62 373.53C1704.48 376.31 1713.17 379.59 1721.94 382.64C1723.89 383.32 1725.83 384.79 1728.01 383.2L1727.85 383.41C1727.12 384.32 1726.08 384.2 1725.1 384.2C1705.96 384.2 1686.83 384.2 1667.69 384.18C1667.16 384.18 1666.59 384.25 1666.08 384.13C1665.72 383.9 1665.37 383.64 1665.04 383.33C1667.02 382.56 1669 381.79 1670.98 381.02H1670.99ZM1563.1 383.52C1563.19 383.49 1563.29 383.45 1563.38 383.42C1563.41 383.44 1563.43 383.47 1563.46 383.49C1563.34 383.5 1563.22 383.51 1563.1 383.52ZM1626.01 384.35H1625.99C1625.97 384.3 1625.96 384.23 1625.93 384.18C1625.99 384.18 1626.04 384.19 1626.1 384.2C1626.07 384.25 1626.03 384.29 1626 384.35H1626.01ZM1616.29 382.69C1599.84 383.02 1583.36 382.03 1566.93 383.21C1573.94 381.46 1580.78 379.25 1587.09 375.57C1587.18 375.34 1587.21 375.15 1587.22 374.98C1588.24 374.71 1589.31 374.59 1590.25 374.11C1590.67 374.19 1591.09 374.26 1591.52 374.29C1595.06 373.81 1598.32 374.63 1601.69 375.82C1608.62 378.26 1615.48 380.93 1622.5 383.17C1620.46 382.81 1618.39 382.64 1616.3 382.69H1616.29ZM1636.44 357.52C1638.69 357.61 1640.57 355.37 1642.97 356.39C1642.94 363.97 1642.85 371.54 1642.9 379.12C1642.92 381.17 1642.85 382.77 1640.14 382.21C1639.61 379.47 1637.08 379.49 1635.2 378.85C1626.31 375.81 1617.5 372.53 1608.11 369.24C1613.91 366.64 1619.5 365.14 1624.89 363.11C1628.85 361.62 1633.13 360.72 1636.41 357.73C1636.43 357.65 1636.43 357.58 1636.44 357.51V357.52ZM1567.66 363.96C1572.25 365.69 1577.06 366.86 1582.32 369.23C1575.46 371.64 1569.37 373.68 1563.38 376.02C1561.65 376.69 1559.29 376.63 1558.83 379.19C1555.09 380.03 1553.22 378.526 1553.21 374.68C1553.21 370.08 1553.38 365.47 1553.16 360.87C1553.01 357.76 1554.3 357.72 1556.61 358.57C1558.59 359.3 1560.65 359.82 1562.67 360.43C1563.31 363.04 1565.71 363.23 1567.64 363.96H1567.66ZM1553.36 392.41C1552.8 389.19 1555.81 390.53 1557.24 390.53C1615.26 390.46 1673.29 390.47 1731.31 390.47C1738.78 390.47 1740.17 392.9 1736.98 400.36C1735.82 400.29 1734.67 400.17 1733.51 400.17C1675.51 400.17 1617.5 400.17 1559.5 400.17C1558.34 400.17 1557.19 400.3 1556.03 400.37C1550.4 399.38 1553.83 395.1 1553.36 392.41ZM1663.69 360.4C1663.69 360.52 1663.69 360.64 1663.69 360.78C1664.6 362.67 1666.58 362.78 1668.18 363.52C1672.88 365.67 1678.01 366.72 1682.89 369.04C1680.85 370.81 1678.05 370.41 1676.73 372.6C1676.74 372.82 1676.74 373.02 1676.74 373.21C1675.43 372.97 1674.43 373.74 1673.35 374.27C1672.64 373.93 1672.13 374.12 1671.84 374.89C1664.32 377.4 1656.8 379.91 1648.68 382.63C1648.68 374.04 1648.72 365.93 1648.66 357.82C1648.64 355.58 1649.8 355.92 1651.19 356.37C1653.38 357.07 1655.59 357.72 1657.78 358.4C1659.52 359.71 1661.51 360.3 1663.66 360.42L1663.69 360.4Z" fill="#97BFFF"/>
<path d="M598.816 415.353C592.345 407.217 601.566 397.13 594.681 386.296C587.982 375.794 574.294 377.455 574.004 371.768C573.736 366.31 586.059 358.734 594.681 361.391C600.264 363.113 602.456 368.551 605.019 367.617C608.721 366.268 605.847 354.293 609.155 353.089C610.664 352.529 613.145 354.376 621.561 365.542C631.982 379.385 631.093 380.402 633.967 382.145C645.918 389.409 662.087 372.183 669.117 377.994C674.969 382.83 671.764 401.385 660.847 411.202C654.209 417.158 646.828 418.009 633.967 419.503C618.418 421.309 604.813 422.886 598.816 415.353Z" fill="#97BFFF"/>
<path d="M708.214 413.559C704.224 411.489 699.994 406.319 701.214 401.559C701.934 398.759 704.524 396.199 706.214 396.559C707.774 396.889 708.044 399.609 709.214 399.559C710.294 399.519 710.274 397.199 712.214 395.559C713.934 394.099 716.884 393.449 718.214 394.559C720.124 396.149 717.684 400.539 719.214 401.559C721.014 402.759 725.214 397.219 728.214 398.559C729.564 399.159 730.414 401.039 730.214 402.559C729.864 405.269 726.434 405.159 720.214 409.559C716.054 412.499 714.394 414.809 711.214 414.559C709.954 414.459 709.074 413.999 708.214 413.559Z" fill="#97BFFF"/>
<path d="M1851.11 445.565C1845.52 442.647 1839.59 435.361 1841.3 428.653C1842.31 424.707 1845.94 421.1 1848.31 421.607C1850.5 422.072 1850.88 425.905 1852.52 425.835C1854.03 425.778 1854 422.509 1856.72 420.198C1859.13 418.14 1863.27 417.224 1865.13 418.788C1867.81 421.029 1864.39 427.216 1866.54 428.653C1869.06 430.344 1874.95 422.537 1879.16 424.426C1881.05 425.271 1882.24 427.921 1881.96 430.063C1881.47 433.882 1876.66 433.727 1867.94 439.928C1862.11 444.071 1859.78 447.326 1855.32 446.974C1853.55 446.833 1852.32 446.185 1851.11 445.565Z" fill="#97BFFF"/>
<defs>
<filter id="filter0_f_344_19250" x="1568.89" y="76.0781" width="220.032" height="220.032" filterUnits="userSpaceOnUse" color-interpolation-filters="sRGB">
<feFlood flood-opacity="0" result="BackgroundImageFix"/>
<feBlend mode="normal" in="SourceGraphic" in2="BackgroundImageFix" result="shape"/>
<feGaussianBlur stdDeviation="35" result="effect1_foregroundBlur_344_19250"/>
</filter>
</defs>
</svg>
