<svg width="21" height="22" viewBox="0 0 21 22" fill="none" xmlns="http://www.w3.org/2000/svg">
<path d="M16.58 0.805176H3.81C1.71 0.805176 0 2.51518 0 4.61518V17.3852C0 19.4852 1.71 21.1952 3.81 21.1952H16.58C18.68 21.1952 20.39 19.4852 20.39 17.3852V4.61518C20.39 2.51518 18.68 0.805176 16.58 0.805176ZM18.89 17.3852C18.89 18.6652 17.85 19.6952 16.58 19.6952H3.81C2.53 19.6952 1.5 18.6552 1.5 17.3852V4.61518C1.5 3.33518 2.54 2.30518 3.81 2.30518H16.58C17.86 2.30518 18.89 3.34518 18.89 4.61518V17.3852Z" fill="#003386"/>
<path d="M13.5721 10.5662C13.5721 10.5662 13.5121 10.5662 13.4821 10.5662C12.2621 10.5662 11.0621 11.0562 10.1721 11.9262C9.22215 12.8562 8.70215 14.0962 8.70215 15.4162C8.70215 15.8162 9.03215 16.1462 9.43215 16.1462C9.83215 16.1462 10.1621 15.8162 10.1621 15.4162C10.1621 14.4962 10.5222 13.6262 11.1922 12.9762C11.8222 12.3562 12.6921 11.9962 13.5221 12.0362C15.2321 12.0762 16.6321 13.4862 16.7121 15.2462C16.7121 15.4462 16.8121 15.6262 16.9621 15.7562C17.1121 15.8862 17.2921 15.9562 17.4821 15.9362C17.8821 15.9162 18.2021 15.5762 18.1821 15.1662C18.0621 12.6462 16.0321 10.6262 13.5621 10.5562L13.5721 10.5662Z" fill="#003386"/>
<path d="M9.27321 12.4689C9.49321 12.0989 9.41321 11.6289 9.07321 11.3789C8.61321 11.0389 7.38321 10.2689 5.92321 10.5089C4.93321 10.6689 4.02321 11.2789 3.43321 12.1789C2.84321 13.0789 2.61321 14.1789 2.79321 15.2889C2.85321 15.6789 3.16321 15.9589 3.53321 15.9589C3.57321 15.9589 3.61321 15.9589 3.66321 15.9489C4.06321 15.8689 4.33321 15.4589 4.27321 15.0289C4.16321 14.3389 4.30321 13.6489 4.66321 13.0989C5.02321 12.5489 5.56321 12.1789 6.15321 12.0889C7.09321 11.9289 7.97321 12.5189 8.21321 12.6989C8.38321 12.8189 8.58321 12.8689 8.77321 12.8289C8.97321 12.7889 9.15321 12.6589 9.26321 12.4789L9.27321 12.4689Z" fill="#003386"/>
<path d="M13.5909 9.75748C15.0609 9.75748 16.2609 8.55748 16.2609 7.08748C16.2609 5.61748 15.0609 4.41748 13.5909 4.41748C12.1209 4.41748 10.9209 5.61748 10.9209 7.08748C10.9209 8.55748 12.1209 9.75748 13.5909 9.75748ZM12.3909 7.08748C12.3909 6.42748 12.9309 5.88748 13.5909 5.88748C14.2509 5.88748 14.7909 6.42748 14.7909 7.08748C14.7909 7.74748 14.2509 8.28748 13.5909 8.28748C12.9309 8.28748 12.3909 7.74748 12.3909 7.08748Z" fill="#003386"/>
<path d="M6.43465 9.75748C7.90465 9.75748 9.10465 8.55748 9.10465 7.08748C9.10465 5.61748 7.90465 4.41748 6.43465 4.41748C4.96465 4.41748 3.76465 5.61748 3.76465 7.08748C3.76465 8.55748 4.96465 9.75748 6.43465 9.75748ZM5.23465 7.08748C5.23465 6.42748 5.77465 5.88748 6.43465 5.88748C7.09465 5.88748 7.63465 6.42748 7.63465 7.08748C7.63465 7.74748 7.09465 8.28748 6.43465 8.28748C5.77465 8.28748 5.23465 7.74748 5.23465 7.08748Z" fill="#003386"/>
</svg>
