<svg width="20" height="20" viewBox="0 0 20 20" fill="none" xmlns="http://www.w3.org/2000/svg">
<path d="M10.0531 6.00781H9.95312" stroke="#3881F6" stroke-width="3" stroke-linecap="round" stroke-linejoin="round"/>
<path d="M10.0023 14.0086V11.0086M1.1223 11.4786C1.35545 12.8769 1.91561 14.2003 2.75714 15.3411C3.59867 16.4819 4.69777 17.4077 5.96491 18.0433C7.23205 18.6788 8.63139 19.006 10.0489 18.9982C11.4665 18.9905 12.8622 18.648 14.1223 17.9986L17.5123 18.6986C17.6743 18.7318 17.842 18.7242 18.0003 18.6766C18.1587 18.629 18.3027 18.5429 18.4197 18.426C18.5366 18.3091 18.6227 18.165 18.6703 18.0067C18.7178 17.8483 18.7254 17.6806 18.6923 17.5186L18.0023 14.1186C18.6544 12.8517 18.9963 11.4481 19 10.0232C19.0036 8.59835 18.669 7.19297 18.0234 5.9227C17.3779 4.65243 16.44 3.55358 15.2869 2.71656C14.1338 1.87954 12.7984 1.32827 11.3907 1.10809C9.98292 0.887922 8.54299 1.00515 7.18938 1.45012C5.83577 1.8951 4.60715 2.65511 3.60461 3.66762C2.60207 4.68014 1.85427 5.91622 1.42271 7.27417C0.991162 8.63212 0.8882 10.0731 1.1223 11.4786Z" stroke="#3881F6" stroke-width="2" stroke-linecap="round" stroke-linejoin="round"/>
</svg>
