<svg width="13" height="13" viewBox="0 0 13 13" fill="none" xmlns="http://www.w3.org/2000/svg">
<path d="M6.10723 0.362864C6.15434 0.36159 6.20066 0.377569 6.23614 0.407785C6.27148 0.437957 6.29353 0.480358 6.29864 0.52595C6.32655 0.774461 6.39845 0.997145 6.51348 1.19294C6.5354 1.22934 6.56426 1.23549 6.60039 1.2115C6.6596 1.17217 6.71579 1.12833 6.76739 1.08064C7.1715 0.709516 7.49979 0.744314 7.75176 1.18513L7.97442 2.20466C7.97928 2.22752 7.97891 2.25129 7.97344 2.274C7.96792 2.2967 7.95796 2.31839 7.94317 2.3365C7.92845 2.35447 7.90951 2.36854 7.88848 2.37849C7.86724 2.38845 7.84361 2.39427 7.82012 2.39411C7.67215 2.39244 7.52773 2.43942 7.38653 2.53474C6.81392 2.9372 6.38459 3.46707 6.10039 4.12556C5.7587 4.91876 5.61438 5.79295 5.6668 6.74763C5.55431 7.67139 5.64602 8.59103 5.94121 9.50642C6.00296 9.69884 6.0992 9.90134 6.23028 10.1138C6.44215 10.4552 6.79198 10.7796 7.08379 11.1109C7.11331 11.1443 7.10899 11.1723 7.07012 11.1949C7.0305 11.2182 6.98617 11.233 6.93731 11.2388C6.89502 11.2447 6.86986 11.2682 6.86309 11.3092C6.85652 11.3483 6.87507 11.3839 6.91875 11.4156C6.94492 11.4348 6.9732 11.4453 7.00274 11.4478C7.01024 11.4485 7.01778 11.4508 7.02422 11.4547C7.03076 11.4586 7.03685 11.4649 7.04082 11.4713C7.04462 11.4775 7.04714 11.4846 7.04766 11.4918C7.04818 11.4991 7.04673 11.5065 7.04375 11.5133C6.97778 11.6622 6.94101 11.7837 6.9334 11.8765C6.92911 11.9182 6.91211 11.9538 6.88262 11.983C6.84125 12.0231 6.79432 12.0554 6.742 12.0797C6.70067 12.0997 6.66952 12.1295 6.64922 12.1695C6.61454 12.2373 6.56683 12.2927 6.50762 12.3345C6.48925 12.3472 6.46821 12.3555 6.4461 12.359C6.42366 12.3624 6.4004 12.3607 6.37871 12.3541C6.20367 12.3005 6.04396 12.2224 5.9002 12.1187C5.86298 12.0919 5.82198 12.076 5.77715 12.0718C3.02338 11.8501 1.32393 10.4386 0.678519 7.83747C0.600704 7.31535 0.596728 6.74209 0.667777 6.11872C0.681338 6.00001 0.734802 5.94127 0.826957 5.94294C0.883451 5.9437 0.906293 5.91717 0.895316 5.86286L0.840628 5.58845C0.832341 5.54586 0.836753 5.50054 0.853324 5.45954C0.969123 5.18688 1.0556 4.9035 1.11309 4.60993C1.14863 4.43099 1.22059 4.25597 1.32793 4.08454C1.45311 3.88457 1.57625 3.65294 1.69805 3.39021C1.89682 2.96431 2.22894 2.5611 2.69414 2.18122C3.09917 1.85165 3.51218 1.52545 3.93243 1.20173C4.62938 0.665381 5.35445 0.385456 6.10723 0.362864ZM5.05938 2.52595C5.11859 2.43223 5.1004 2.41353 5.00567 2.47126C3.99081 3.0887 3.08644 3.88839 2.59161 4.90486C2.12133 5.86962 2.05777 6.88293 2.40118 7.94392L2.61797 8.63825C2.6305 8.67903 2.61607 8.70267 2.57403 8.70857C2.51667 8.71774 2.46406 8.73732 2.4168 8.76814C2.37799 8.79318 2.37266 8.82422 2.40118 8.86091C2.52205 9.0131 2.62411 9.18338 2.70782 9.37068C2.72551 9.40903 2.75408 9.43693 2.79278 9.45368L4.79375 10.316C4.80282 10.32 4.81324 10.3214 4.82305 10.3199C4.83273 10.3184 4.84201 10.3145 4.84942 10.3082C4.85679 10.3018 4.86223 10.293 4.86504 10.2838C4.86782 10.2743 4.86784 10.2639 4.86504 10.2545C4.81852 10.1047 4.74798 9.96688 4.65411 9.84138C4.62897 9.80811 4.6157 9.77059 4.61309 9.72907C4.59364 9.46383 4.53432 9.18111 4.43535 8.88239C4.42182 8.84396 4.39812 8.81149 4.36602 8.78474C4.29603 8.72867 4.2588 8.63445 4.25371 8.50251C4.24526 8.26916 4.23678 8.07245 4.22832 7.91267C4.19027 7.53993 4.02112 7.22724 4.01348 6.89216C3.99234 6.01534 4.08696 5.14972 4.29668 4.29548C4.44807 3.68223 4.70251 3.09236 5.05938 2.52595ZM11.283 6.4781C11.3084 6.17068 11.4507 5.70474 11.8768 5.81111C11.9181 5.82197 11.938 5.84849 11.9363 5.89021C11.9186 6.35333 11.9545 6.66845 12.3592 6.8404C12.3989 6.85629 12.4189 6.88568 12.4197 6.92829C12.4273 7.1818 12.0675 7.24111 11.9051 7.31013C11.8653 7.32686 11.844 7.35618 11.8406 7.39802C11.8119 7.71676 11.726 8.0264 11.5848 8.32673C11.5745 8.34908 11.5564 8.36699 11.534 8.37751C11.5115 8.38799 11.4857 8.39068 11.4617 8.38435C11.4357 8.3776 11.4155 8.36161 11.4012 8.33747C11.2195 8.02717 11.1163 7.73361 11.0926 7.45759C11.0908 7.43858 11.0818 7.42131 11.0672 7.40876C11.0525 7.39615 11.0338 7.3892 11.0145 7.39021C10.6744 7.40862 10.3213 7.36757 9.95586 7.26716C9.91891 7.25708 9.8986 7.23332 9.89434 7.19587C9.87023 6.9825 9.95249 6.81081 10.1834 6.75935C10.4692 6.6941 10.7777 6.65486 11.1092 6.64314C11.1537 6.64142 11.1963 6.62388 11.2283 6.59333C11.2603 6.56286 11.2796 6.52185 11.283 6.4781ZM8.30938 4.87654C8.32972 4.88497 8.34809 4.89766 8.36309 4.91364C8.37812 4.9297 8.38934 4.94951 8.39629 4.97029C8.40315 4.99094 8.40548 5.01312 8.40313 5.03474L8.38457 5.22126C8.38035 5.26305 8.39478 5.29676 8.42852 5.32185C8.61878 5.46406 8.80968 5.57705 9.00078 5.66072C9.30939 5.79454 9.29753 5.88826 8.96465 5.94099C8.78365 5.9686 8.61019 6.0042 8.4461 6.04939C8.40484 6.06115 8.3777 6.08745 8.36504 6.12751C8.33547 6.22366 8.32673 6.32071 8.3377 6.41853C8.35292 6.56997 8.28375 6.65179 8.13067 6.66267C7.78821 6.68609 7.61285 6.53637 7.6043 6.21443C7.60345 6.17343 7.5824 6.14871 7.5418 6.14118C7.3752 6.11025 7.16734 6.09682 6.91875 6.10017C6.77769 6.10176 6.72955 6.03601 6.7752 5.90388L6.84649 5.69685C6.89049 5.56723 6.98086 5.49231 7.117 5.47224L7.61797 5.39802C7.65081 5.39339 7.68092 5.37791 7.70391 5.35407C7.72691 5.33018 7.74161 5.29915 7.74493 5.26618L7.76934 5.00642C7.77304 4.97101 7.78921 4.93801 7.81524 4.91364C7.8413 4.88928 7.87527 4.87501 7.91094 4.87361L8.24493 4.86482C8.26699 4.86417 8.28902 4.8681 8.30938 4.87654ZM11.1268 3.26618C11.177 3.27275 11.2228 3.29869 11.2537 3.33845C11.2846 3.37817 11.2982 3.42841 11.2918 3.4781L11.2576 3.75837C11.2562 3.76929 11.2576 3.78029 11.2615 3.7906C11.2655 3.80106 11.2725 3.81061 11.2811 3.81794C11.2895 3.82515 11.2995 3.83014 11.3104 3.83259C11.3213 3.83503 11.3328 3.8355 11.3436 3.83259C11.5583 3.77321 11.7323 3.84556 11.865 4.05036C11.9302 4.15077 11.9146 4.23719 11.8182 4.30915C11.6846 4.40867 11.5301 4.49951 11.3543 4.58064C11.1234 4.68858 11.024 4.84145 10.868 5.01716C10.8543 5.03271 10.8367 5.04424 10.8172 5.05134C10.7976 5.05844 10.7764 5.0613 10.7557 5.05818C10.7351 5.05504 10.7157 5.04626 10.699 5.03376C10.6823 5.02121 10.6687 5.00479 10.66 4.98591L10.5623 4.77595C10.5429 4.73426 10.51 4.71342 10.4637 4.71247C10.155 4.70411 9.84815 4.67783 9.54375 4.63435C9.41948 4.61679 9.38877 4.50951 9.45293 4.31306C9.47576 4.2428 9.52366 4.19867 9.59551 4.18025C9.85761 4.11333 10.1336 4.07843 10.4236 4.07673C10.4842 4.07683 10.5436 4.0571 10.5916 4.02009C10.6396 3.98309 10.674 3.93114 10.6893 3.87263L10.8162 3.38142C10.8425 3.28037 10.9078 3.23737 11.0125 3.25154L11.1268 3.26618Z" fill="#0048B8"/>
</svg>
