<svg width="23" height="21" viewBox="0 0 23 21" fill="none" xmlns="http://www.w3.org/2000/svg">
<path fill-rule="evenodd" clip-rule="evenodd" d="M7.0083 1.5326e-05L7.01857 0C8.67924 0.010735 10.2688 0.719318 11.4418 1.97169C11.5479 2.08361 11.6498 2.19976 11.7473 2.31985C11.8443 2.2003 11.9457 2.08466 12.0513 1.97321C12.6296 1.34891 13.3185 0.853074 14.078 0.514453C14.8388 0.175245 15.6554 0.000562871 16.4801 0.000562871C17.3049 0.000562871 18.1214 0.175245 18.8822 0.514453C19.6425 0.853397 20.332 1.34985 20.9106 1.97499C22.0886 3.23571 22.75 4.94224 22.75 6.72121C22.75 8.50079 22.0882 10.2079 20.9094 11.4687L12.2354 20.7834C12.1063 20.922 11.9306 21 11.7473 21C11.564 21 11.3883 20.922 11.2592 20.7834L2.58442 11.468C1.70896 10.529 1.11294 9.33568 0.870954 8.0375C0.628971 6.73932 0.751784 5.39394 1.22402 4.16976C1.69626 2.94559 2.49693 1.89703 3.52581 1.15533C4.5547 0.41363 5.76607 0.0117562 7.0083 1.5326e-05ZM20.4223 2.49062L19.9326 3.00491C19.4816 2.51739 18.9441 2.13025 18.3514 1.866C17.7587 1.60176 17.1226 1.46568 16.4801 1.46568C15.8376 1.46568 15.2016 1.60176 14.6089 1.866C14.0162 2.13025 13.4787 2.51739 13.0277 3.00491L13.0216 3.01144C12.7578 3.28959 12.5279 3.60196 12.3373 3.94128C12.2131 4.16234 11.9891 4.29766 11.7473 4.29766C11.5055 4.29766 11.2814 4.16234 11.1573 3.94128C10.9667 3.60196 10.7367 3.28954 10.4729 3.0114L10.4696 3.00796C9.55365 2.02928 8.31244 1.47495 7.01536 1.46513C6.04547 1.47537 5.09984 1.78963 4.29645 2.36878C3.49164 2.94894 2.86534 3.76915 2.49595 4.72671C2.12656 5.68428 2.0305 6.73666 2.21978 7.75211C2.40906 8.76756 2.87528 9.70097 3.56008 10.4355L11.7473 19.2273L19.9342 10.4358L19.9351 10.4348C20.8571 9.44852 21.3748 8.11322 21.3748 6.72121C21.3748 5.3292 20.8571 3.9939 19.9351 3.00765L20.4223 2.49062Z" fill="black"/>
</svg>
