<svg width="12" height="11" display="inline-block" viewBox="0 0 12 11" xmlns="http://www.w3.org/2000/svg">
<path fill="currentColor" d="M3.2854 8.02792e-06L3.29053 0C4.12087 0.00562311 4.91565 0.376786 5.50215 1.03279C5.55519 1.09141 5.60613 1.15225 5.65488 1.21516C5.70341 1.15254 5.75411 1.09196 5.80689 1.03359C6.09606 0.706571 6.44049 0.446848 6.82025 0.269476C7.20067 0.0917949 7.60893 0.000294837 8.02131 0.000294837C8.43369 0.000294837 8.84196 0.0917949 9.22237 0.269476C9.60249 0.447017 9.94723 0.707066 10.2366 1.03452C10.8256 1.6949 11.1562 2.58879 11.1562 3.52063C11.1562 4.45279 10.8253 5.34698 10.236 6.00742L5.89894 10.8865C5.83439 10.9592 5.74653 11 5.65488 11C5.56323 11 5.47538 10.9592 5.41083 10.8865L1.07346 6.00704C0.635732 5.51517 0.337719 4.89012 0.216727 4.21012C0.0957356 3.53012 0.157142 2.8254 0.39326 2.18416C0.629378 1.54293 1.02972 0.99368 1.54416 0.605172C2.0586 0.216663 2.66429 0.00615803 3.2854 8.02792e-06ZM9.99242 1.30461L9.74753 1.574C9.52203 1.31863 9.25329 1.11584 8.95695 0.97743C8.6606 0.839016 8.34256 0.767737 8.02131 0.767737C7.70007 0.767737 7.38203 0.839016 7.08568 0.97743C6.78933 1.11584 6.5206 1.31863 6.29509 1.574L6.29207 1.57742C6.16016 1.72312 6.04518 1.88674 5.94988 2.06448C5.8878 2.18027 5.77578 2.25116 5.65488 2.25116C5.53398 2.25116 5.42196 2.18027 5.35988 2.06448C5.26458 1.88674 5.14962 1.72309 5.01771 1.5774L5.01607 1.5756C4.55808 1.06296 3.93747 0.772593 3.28893 0.767447C2.80399 0.772811 2.33117 0.937426 1.92947 1.24079C1.52707 1.54468 1.21392 1.97431 1.02923 2.4759C0.844532 2.97748 0.796498 3.52872 0.89114 4.06063C0.985781 4.59253 1.21889 5.08146 1.56129 5.46621L5.65488 10.0715L9.74833 5.46637L9.74881 5.46583C10.2098 4.94922 10.4687 4.24978 10.4687 3.52063C10.4687 2.79149 10.2098 2.09205 9.74881 1.57544L9.99242 1.30461Z"   />
</svg>
