<svg width="19" height="18" viewBox="0 0 19 18" fill="none" xmlns="http://www.w3.org/2000/svg">
<path d="M17.4216 17.2029L14.4216 12.4029C14.3117 12.2277 14.0226 12.2277 13.9127 12.4029L10.9127 17.2029C10.855 17.2954 10.8519 17.4308 10.9048 17.526C10.9577 17.6215 11.058 17.6994 11.1671 17.6994H17.1672C17.2763 17.6994 17.3766 17.6215 17.4295 17.526C17.4824 17.4308 17.4793 17.2954 17.4216 17.2029ZM11.7084 17.0994L14.1671 13.1654L16.6259 17.0994H11.7084Z" fill="currentColor"/>
<path d="M14.4673 0H2.4702C1.9732 0 1.53125 0.365625 1.53125 0.861328V17.0637C1.53125 17.5594 1.97218 18 2.46816 18H9.66873C9.83442 18 9.96871 17.8658 9.96871 17.7C9.96871 17.5342 9.83438 17.4 9.66873 17.4H2.46816C2.30307 17.4 2.13126 17.2284 2.13126 17.0637V0.861328C2.13126 0.696691 2.30395 0.600012 2.47024 0.600012H14.4673C14.6308 0.600012 14.7313 0.69873 14.7313 0.860168V11.3625C14.7313 11.5283 14.8656 11.6625 15.0312 11.6625C15.1969 11.6625 15.3312 11.5283 15.3312 11.3625V0.860168C15.3312 0.365344 14.9643 0 14.4673 0Z" fill="currentColor"/>
<path d="M9.96798 2.09961H6.96796C6.80227 2.09961 6.66797 2.2338 6.66797 2.3996C6.66797 2.56543 6.8023 2.69959 6.96796 2.69959H9.96795C10.1336 2.69959 10.2679 2.56539 10.2679 2.3996C10.268 2.2338 10.1336 2.09961 9.96798 2.09961Z" fill="currentColor"/>
<path d="M12.6688 4.2002H4.26874C4.10305 4.2002 3.96875 4.33439 3.96875 4.50018C3.96875 4.66602 4.10308 4.80017 4.26874 4.80017H12.6687C12.8344 4.80017 12.9687 4.66598 12.9687 4.50018C12.9687 4.33435 12.8344 4.2002 12.6688 4.2002Z" fill="currentColor"/>
<path d="M12.6688 6.2998H4.26874C4.10305 6.2998 3.96875 6.434 3.96875 6.59979C3.96875 6.76563 4.10308 6.89978 4.26874 6.89978H12.6687C12.8344 6.89978 12.9687 6.76559 12.9687 6.59979C12.9687 6.434 12.8344 6.2998 12.6688 6.2998Z" fill="currentColor"/>
<path d="M12.6688 8.40039H4.26874C4.10305 8.40039 3.96875 8.53458 3.96875 8.70038C3.96875 8.86621 4.10308 9.00037 4.26874 9.00037H12.6687C12.8344 9.00037 12.9687 8.86618 12.9687 8.70038C12.9687 8.53458 12.8344 8.40039 12.6688 8.40039Z" fill="currentColor"/>
<path d="M12.6672 10.5H4.26719C4.1015 10.5 3.92969 10.5967 3.92969 10.7625V15.2625C3.92969 15.4283 4.1015 15.6 4.26719 15.6H10.8672C11.0329 15.6 11.1672 15.4658 11.1672 15.3C11.1672 15.1342 11.0328 15 10.8672 15H4.5297V11.1H12.3297V12.2625C12.3297 12.4283 12.464 12.5625 12.6297 12.5625C12.7954 12.5625 12.9297 12.4283 12.9297 12.2625V10.7625C12.9297 10.5967 12.8329 10.5 12.6672 10.5Z" fill="currentColor"/>
<path d="M14.132 13.7627C13.9663 13.7627 13.832 13.8969 13.832 14.0627V15.5627C13.832 15.7285 13.9664 15.8627 14.132 15.8627C14.2977 15.8627 14.432 15.7285 14.432 15.5627V14.0627C14.432 13.8969 14.2977 13.7627 14.132 13.7627Z" fill="currentColor"/>
<path d="M14.4612 16.4017C14.4581 16.3839 14.4521 16.3657 14.4432 16.3478C14.4371 16.3297 14.4281 16.3118 14.416 16.2936C14.4042 16.2787 14.3922 16.2637 14.3802 16.2488C14.2961 16.1647 14.1641 16.1378 14.0531 16.1858C14.0141 16.2007 13.9841 16.2218 13.9542 16.2488C13.9002 16.3057 13.8672 16.3806 13.8672 16.4618C13.8672 16.5426 13.8971 16.6176 13.9542 16.6748C13.9841 16.7017 14.0172 16.7228 14.0531 16.7378C14.0891 16.7527 14.128 16.7618 14.1672 16.7618C14.2061 16.7618 14.2451 16.7527 14.2812 16.7378C14.3172 16.7228 14.3502 16.7017 14.3802 16.6748C14.4072 16.6446 14.4281 16.6118 14.4432 16.5757C14.4612 16.5397 14.4672 16.5007 14.4672 16.4617C14.4672 16.4407 14.4641 16.4228 14.4612 16.4017Z" fill="currentColor"/>
</svg>
