<svg width="23" height="24" viewBox="0 0 23 24" fill="none" xmlns="http://www.w3.org/2000/svg">
<path d="M19.1325 0.394043H6.3725C4.2725 0.394043 2.5625 2.10404 2.5625 4.20404V16.974C2.5625 19.074 4.2725 20.784 6.3725 20.784H19.1425C21.2425 20.784 22.9525 19.074 22.9525 16.974V4.20404C22.9525 2.10404 21.2425 0.394043 19.1425 0.394043H19.1325ZM21.4425 16.974C21.4425 18.254 20.4025 19.284 19.1325 19.284H6.3725C5.0925 19.284 4.0625 18.244 4.0625 16.974V4.20404C4.0625 2.92404 5.1025 1.89404 6.3725 1.89404H19.1425C20.4225 1.89404 21.4525 2.93404 21.4525 4.20404V16.974H21.4425Z" fill="#003386"/>
<path d="M21.3612 22.4362C21.1412 22.2762 20.9012 22.3162 20.8612 22.3262H4.57118C2.77118 22.3262 1.30118 20.8562 1.30118 19.0562V2.77623C1.32118 2.70623 1.35118 2.51623 1.26118 2.31623C1.12118 1.99623 0.791176 1.90623 0.751176 1.88623C0.711176 1.88623 0.371176 1.88623 0.151176 2.18623C-0.0388236 2.44623 0.0111764 2.72623 0.0211764 2.77623V19.0562C0.0211764 21.5662 2.06118 23.6062 4.57118 23.6062H20.8512C20.9212 23.6062 21.1312 23.6062 21.3312 23.4562C21.3712 23.4262 21.6312 23.2262 21.6112 22.9062C21.6012 22.6262 21.3812 22.4562 21.3512 22.4362H21.3612Z" fill="#003386"/>
<path d="M18.3901 6.7017H6.85012C6.45012 6.7017 6.12012 6.3817 6.12012 5.9717C6.12012 5.5617 6.44012 5.2417 6.85012 5.2417H18.3901C18.7901 5.2417 19.1201 5.5617 19.1201 5.9717C19.1201 6.3817 18.8001 6.7017 18.3901 6.7017Z" fill="#003386"/>
<path d="M18.5102 10.9224H6.97023C6.57023 10.9224 6.24023 10.6024 6.24023 10.1924C6.24023 9.7824 6.56023 9.4624 6.97023 9.4624H18.5102C18.9102 9.4624 19.2402 9.7824 19.2402 10.1924C19.2402 10.6024 18.9202 10.9224 18.5102 10.9224Z" fill="#003386"/>
<path d="M18.5102 15.1744H6.97023C6.57023 15.1744 6.24023 14.8544 6.24023 14.4444C6.24023 14.0344 6.56023 13.7144 6.97023 13.7144H18.5102C18.9102 13.7144 19.2402 14.0344 19.2402 14.4444C19.2402 14.8544 18.9202 15.1744 18.5102 15.1744Z" fill="#003386"/>
</svg>
