<svg width="17" height="18" viewBox="0 0 17 18" fill="none" xmlns="http://www.w3.org/2000/svg">
<path fill-rule="evenodd" clip-rule="evenodd" d="M16.3869 0V18H1.55183V13.8824H1.02202C0.729553 13.8824 0.492188 13.6452 0.492188 13.3529C0.492188 13.0607 0.729553 12.8235 1.02202 12.8235H1.55183V9.64706H1.02202C0.729553 9.64706 0.492188 9.40988 0.492188 9.11765C0.492188 8.82541 0.729553 8.58824 1.02202 8.58824H1.55183V5.41176H1.02202C0.729553 5.41176 0.492188 5.17458 0.492188 4.88235C0.492188 4.59011 0.729553 4.35293 1.02202 4.35293H1.55183V0H16.3869ZM15.3273 1.05882H2.61149V4.35294H3.14132C3.43378 4.35294 3.67114 4.59012 3.67114 4.88235C3.67114 5.17459 3.43378 5.41176 3.14132 5.41176H2.61149V8.58823H3.14132C3.43378 8.58823 3.67114 8.82542 3.67114 9.11765C3.67114 9.40988 3.43378 9.64705 3.14132 9.64705H2.61149V12.8235H3.14132C3.43378 12.8235 3.67114 13.0607 3.67114 13.3529C3.67114 13.6452 3.43378 13.8824 3.14132 13.8824H2.61149V16.9412H15.3273V1.05881L15.3273 1.05882ZM5.50114 3.98626H12.5194V5.04507H5.50113L5.50114 3.98626ZM5.50114 6.00029H11.4959V7.0591H5.50113L5.50114 6.00029ZM5.50114 11.0145H12.5194V12.0733H5.50113L5.50114 11.0145ZM5.50114 13.0285H11.4959V14.0873H5.50113L5.50114 13.0285Z" fill="currentColor"/>
</svg>
