<svg width="28" height="29" viewBox="0 0 28 29" fill="none" xmlns="http://www.w3.org/2000/svg">
<path d="M23.3389 0H7.76683C5.20403 0 3.11719 2.08685 3.11719 4.64964V20.2339C3.11719 22.7967 5.20403 24.8835 7.76683 24.8835H23.3511C25.9138 24.8835 28.0007 22.7967 28.0007 20.2339V4.64964C28.0007 2.08685 25.9138 0 23.3511 0H23.3389ZM26.1579 20.2339C26.1579 21.7959 24.8887 23.0529 23.3389 23.0529H7.76683C6.20474 23.0529 4.94775 21.7837 4.94775 20.2339V4.64964C4.94775 3.08756 6.21695 1.83057 7.76683 1.83057H23.3511C24.9131 1.83057 26.1701 3.09976 26.1701 4.64964V20.2339H26.1579Z" fill="white"/>
<path d="M26.0592 26.8991C25.7907 26.7038 25.4978 26.7526 25.449 26.7648H5.56903C3.37235 26.7648 1.57839 24.9709 1.57839 22.7742V2.90645C1.6028 2.82102 1.63941 2.58915 1.52958 2.34508C1.35872 1.95455 0.956 1.84472 0.907185 1.82031C0.85837 1.82031 0.443441 1.82031 0.174958 2.18643C-0.0569137 2.50372 0.00410517 2.84543 0.0163089 2.90645V22.7742C0.0163089 25.8374 2.50588 28.3269 5.56903 28.3269H25.4368C25.5222 28.3269 25.7785 28.3269 26.0226 28.1439C26.0714 28.1073 26.3887 27.8632 26.3643 27.4727C26.3521 27.131 26.0836 26.9235 26.047 26.8991H26.0592Z" fill="white"/>
<path d="M22.435 7.69581H8.35181C7.86366 7.69581 7.46094 7.30529 7.46094 6.80494C7.46094 6.30458 7.85146 5.91406 8.35181 5.91406H22.435C22.9231 5.91406 23.3259 6.30458 23.3259 6.80494C23.3259 7.30529 22.9353 7.69581 22.435 7.69581Z" fill="white"/>
<path d="M22.5834 12.8521H8.50025C8.0121 12.8521 7.60938 12.4615 7.60938 11.9612C7.60938 11.4608 7.9999 11.0703 8.50025 11.0703H22.5834C23.0716 11.0703 23.4743 11.4608 23.4743 11.9612C23.4743 12.4615 23.0838 12.8521 22.5834 12.8521Z" fill="white"/>
<path d="M22.5834 18.0396H8.50025C8.0121 18.0396 7.60938 17.649 7.60938 17.1487C7.60938 16.6483 7.9999 16.2578 8.50025 16.2578H22.5834C23.0716 16.2578 23.4743 16.6483 23.4743 17.1487C23.4743 17.649 23.0838 18.0396 22.5834 18.0396Z" fill="white"/>
</svg>
