<svg width="19" height="18" viewBox="0 0 19 18" fill="none" xmlns="http://www.w3.org/2000/svg">
<g clip-path="url(#clip0_629_171565)">
<path d="M15.6875 0H3.3125C2.56658 0 1.85121 0.296316 1.32376 0.823762C0.796316 1.35121 0.5 2.06658 0.5 2.8125V15.1875C0.5 15.9334 0.796316 16.6488 1.32376 17.1762C1.85121 17.7037 2.56658 18 3.3125 18H15.6875C16.4334 18 17.1488 17.7037 17.6762 17.1762C18.2037 16.6488 18.5 15.9334 18.5 15.1875V2.8125C18.5 2.06658 18.2037 1.35121 17.6762 0.823762C17.1488 0.296316 16.4334 0 15.6875 0ZM3.3125 1.125H15.6875C16.1351 1.125 16.5643 1.30279 16.8807 1.61926C17.1972 1.93572 17.375 2.36495 17.375 2.8125V4.5H1.625V2.8125C1.625 2.36495 1.80279 1.93572 2.11926 1.61926C2.43573 1.30279 2.86495 1.125 3.3125 1.125ZM1.625 15.1875V5.625H6.125V16.875H3.3125C2.86495 16.875 2.43573 16.6972 2.11926 16.3807C1.80279 16.0643 1.625 15.6351 1.625 15.1875ZM15.6875 16.875H7.25V5.625H17.375V15.1875C17.375 15.6351 17.1972 16.0643 16.8807 16.3807C16.5643 16.6972 16.1351 16.875 15.6875 16.875ZM2.75 7.3125C2.75 7.16332 2.80926 7.02024 2.91475 6.91475C3.02024 6.80926 3.16332 6.75 3.3125 6.75H4.4375C4.58668 6.75 4.72976 6.80926 4.83525 6.91475C4.94074 7.02024 5 7.16332 5 7.3125C5 7.46168 4.94074 7.60476 4.83525 7.71025C4.72976 7.81574 4.58668 7.875 4.4375 7.875H3.3125C3.16332 7.875 3.02024 7.81574 2.91475 7.71025C2.80926 7.60476 2.75 7.46168 2.75 7.3125ZM5 10.6875C5 10.8367 4.94074 10.9798 4.83525 11.0852C4.72976 11.1907 4.58668 11.25 4.4375 11.25H3.3125C3.16332 11.25 3.02024 11.1907 2.91475 11.0852C2.80926 10.9798 2.75 10.8367 2.75 10.6875C2.75 10.5383 2.80926 10.3952 2.91475 10.2898C3.02024 10.1843 3.16332 10.125 3.3125 10.125H4.4375C4.58668 10.125 4.72976 10.1843 4.83525 10.2898C4.94074 10.3952 5 10.5383 5 10.6875ZM5 14.0625C5 14.2117 4.94074 14.3548 4.83525 14.4602C4.72976 14.5657 4.58668 14.625 4.4375 14.625H3.3125C3.16332 14.625 3.02024 14.5657 2.91475 14.4602C2.80926 14.3548 2.75 14.2117 2.75 14.0625C2.75 13.9133 2.80926 13.7702 2.91475 13.6648C3.02024 13.5593 3.16332 13.5 3.3125 13.5H4.4375C4.58668 13.5 4.72976 13.5593 4.83525 13.6648C4.94074 13.7702 5 13.9133 5 14.0625ZM16.25 7.3125C16.25 7.46168 16.1907 7.60476 16.0852 7.71025C15.9798 7.81574 15.8367 7.875 15.6875 7.875H8.9375C8.78832 7.875 8.64524 7.81574 8.53975 7.71025C8.43426 7.60476 8.375 7.46168 8.375 7.3125C8.375 7.16332 8.43426 7.02024 8.53975 6.91475C8.64524 6.80926 8.78832 6.75 8.9375 6.75H15.6875C15.8367 6.75 15.9798 6.80926 16.0852 6.91475C16.1907 7.02024 16.25 7.16332 16.25 7.3125ZM16.25 10.6875C16.25 10.8367 16.1907 10.9798 16.0852 11.0852C15.9798 11.1907 15.8367 11.25 15.6875 11.25H8.9375C8.78832 11.25 8.64524 11.1907 8.53975 11.0852C8.43426 10.9798 8.375 10.8367 8.375 10.6875C8.375 10.5383 8.43426 10.3952 8.53975 10.2898C8.64524 10.1843 8.78832 10.125 8.9375 10.125H15.6875C15.8367 10.125 15.9798 10.1843 16.0852 10.2898C16.1907 10.3952 16.25 10.5383 16.25 10.6875ZM16.25 14.0625C16.25 14.2117 16.1907 14.3548 16.0852 14.4602C15.9798 14.5657 15.8367 14.625 15.6875 14.625H8.9375C8.78832 14.625 8.64524 14.5657 8.53975 14.4602C8.43426 14.3548 8.375 14.2117 8.375 14.0625C8.375 13.9133 8.43426 13.7702 8.53975 13.6648C8.64524 13.5593 8.78832 13.5 8.9375 13.5H15.6875C15.8367 13.5 15.9798 13.5593 16.0852 13.6648C16.1907 13.7702 16.25 13.9133 16.25 14.0625Z" fill="currentColor"/>
</g>
<defs>
<clipPath id="clip0_629_171565">
<rect width="18" height="18" fill="currentColor" transform="translate(0.5)"/>
</clipPath>
</defs>
</svg>
