<svg xmlns="http://www.w3.org/2000/svg" width="20" height="20" display="inline-block" viewBox="0 0 20 20" stroke-width="1.5" fill="currentColor" class=""><path d="M4.16667 8.33334C3.25 8.33334 2.5 9.08334 2.5 10C2.5 10.9167 3.25 11.6667 4.16667 11.6667C5.08333 11.6667 5.83333 10.9167 5.83333 10C5.83333 9.08334 5.08333 8.33334 4.16667 8.33334Z"></path><path d="M15.8307 8.33334C14.9141 8.33334 14.1641 9.08334 14.1641 10C14.1641 10.9167 14.9141 11.6667 15.8307 11.6667C16.7474 11.6667 17.4974 10.9167 17.4974 10C17.4974 9.08334 16.7474 8.33334 15.8307 8.33334Z"></path><path d="M10.0026 8.33334C9.08594 8.33334 8.33594 9.08334 8.33594 10C8.33594 10.9167 9.08594 11.6667 10.0026 11.6667C10.9193 11.6667 11.6693 10.9167 11.6693 10C11.6693 9.08334 10.9193 8.33334 10.0026 8.33334Z"></path></svg>