<svg width="19" height="20" viewBox="0 0 19 20" fill="none" xmlns="http://www.w3.org/2000/svg">
<path d="M16.7857 1H2.21429C1.89224 1 1.58338 1.12569 1.35566 1.34942C1.12793 1.57314 1 1.87658 1 2.19298V14.1228C1 14.4392 1.12793 14.7426 1.35566 14.9664C1.58338 15.1901 1.89224 15.3158 2.21429 15.3158H5.85714V18.8947L11.9286 15.3158H16.7857C17.1078 15.3158 17.4166 15.1901 17.6443 14.9664C17.8721 14.7426 18 14.4392 18 14.1228V2.19298C18 1.87658 17.8721 1.57314 17.6443 1.34942C17.4166 1.12569 17.1078 1 16.7857 1V1Z" stroke="black" stroke-width="2" stroke-linecap="round" stroke-linejoin="round"/>
</svg>
