<svg width="28" height="28" viewBox="0 0 28 28" fill="none" xmlns="http://www.w3.org/2000/svg">
<path d="M12.832 2.33594H10.4987C4.66536 2.33594 2.33203 4.66927 2.33203 10.5026V17.5026C2.33203 23.3359 4.66536 25.6693 10.4987 25.6693H17.4987C23.332 25.6693 25.6654 23.3359 25.6654 17.5026V15.1693" stroke="white" stroke-width="1.5" stroke-linecap="round" stroke-linejoin="round"/>
<path d="M18.7122 3.52216L9.51888 12.7155C9.16888 13.0655 8.81888 13.7538 8.74888 14.2555L8.24722 17.7672C8.06055 19.0388 8.95888 19.9255 10.2305 19.7505L13.7422 19.2488C14.2322 19.1788 14.9205 18.8288 15.2822 18.4788L24.4755 9.2855C26.0622 7.69883 26.8089 5.8555 24.4755 3.52216C22.1422 1.18883 20.2989 1.9355 18.7122 3.52216Z" stroke="white" stroke-width="1.5" stroke-miterlimit="10" stroke-linecap="round" stroke-linejoin="round"/>
<path d="M17.3945 4.84375C18.1762 7.63208 20.3579 9.81375 23.1579 10.6071" stroke="white" stroke-width="1.5" stroke-miterlimit="10" stroke-linecap="round" stroke-linejoin="round"/>
</svg>
