<svg width="21" height="20" viewBox="0 0 21 20" fill="none" xmlns="http://www.w3.org/2000/svg">
<path d="M17.2864 1.07709C17.1302 0.920805 16.9182 0.833008 16.6972 0.833008C16.4762 0.833008 16.2642 0.920805 16.1079 1.07709L9.17984 8.00518C9.0635 8.12151 8.98421 8.26968 8.95194 8.431L8.36269 11.3773C8.30805 11.6505 8.39357 11.9329 8.59058 12.13C8.7876 12.327 9.07005 12.4125 9.34327 12.3579L12.2895 11.7686C12.4509 11.7363 12.599 11.657 12.7154 11.5407L19.6435 4.61262C19.9689 4.28718 19.9689 3.75954 19.6435 3.43411L17.2864 1.07709ZM10.5368 9.00527L16.6972 2.84485L17.8757 4.02336L11.7153 10.1838L10.2421 10.4784L10.5368 9.00527ZM3.83464 4.16634C3.83464 3.7061 4.20773 3.33301 4.66797 3.33301H10.5013C10.9615 3.33301 11.3346 2.95991 11.3346 2.49967C11.3346 2.03944 10.9615 1.66634 10.5013 1.66634H4.66797C3.28726 1.66634 2.16797 2.78563 2.16797 4.16634V15.833C2.16797 17.2137 3.28726 18.333 4.66797 18.333H16.3346C17.7153 18.333 18.8346 17.2137 18.8346 15.833V9.99967C18.8346 9.53944 18.4615 9.16634 18.0013 9.16634C17.5411 9.16634 17.168 9.53944 17.168 9.99967V15.833C17.168 16.2932 16.7949 16.6663 16.3346 16.6663H4.66797C4.20773 16.6663 3.83464 16.2932 3.83464 15.833V4.16634Z" fill="currentColor"/>
</svg>
