<svg width="18" height="18" viewBox="0 0 18 18" fill="none" xmlns="http://www.w3.org/2000/svg">
<path d="M14.6366 0H3.36341C1.50956 0 0 1.50956 0 3.36341V14.6366C0 16.4904 1.50956 18 3.36341 18H14.6366C16.4904 18 18 16.4904 18 14.6366V3.36341C18 1.50956 16.4904 0 14.6366 0ZM16.6758 14.6366C16.6758 15.7666 15.7577 16.6758 14.6366 16.6758H3.36341C2.23345 16.6758 1.32418 15.7577 1.32418 14.6366V3.36341C1.32418 2.23345 2.24228 1.32418 3.36341 1.32418H14.6366C15.7666 1.32418 16.6758 2.24228 16.6758 3.36341V14.6366Z" fill="currentColor" />
<path d="M11.9789 8.6182C11.9789 8.6182 11.9259 8.6182 11.8994 8.6182C10.8224 8.6182 9.76306 9.05077 8.97738 9.81879C8.13874 10.6398 7.67969 11.7344 7.67969 12.8997C7.67969 13.2528 7.97101 13.5441 8.32412 13.5441C8.67723 13.5441 8.96855 13.2528 8.96855 12.8997C8.96855 12.0875 9.28636 11.3195 9.87783 10.7457C10.434 10.1984 11.202 9.88059 11.9347 9.9159C13.4443 9.95121 14.6802 11.1959 14.7508 12.7496C14.7508 12.9262 14.8391 13.0851 14.9715 13.1999C15.1039 13.3146 15.2628 13.3764 15.4305 13.3588C15.7837 13.3411 16.0662 13.041 16.0485 12.679C15.9426 10.4544 14.1505 8.67117 11.97 8.60938L11.9789 8.6182Z" fill="currentColor" />
<path d="M8.1834 10.2939C8.37762 9.96729 8.30699 9.55238 8.00685 9.33168C7.60077 9.03153 6.51494 8.35179 5.22607 8.56366C4.35212 8.7049 3.54878 9.2434 3.02794 10.0379C2.50709 10.8324 2.30405 11.8035 2.46295 12.7834C2.51592 13.1277 2.78959 13.3748 3.11622 13.3748C3.15153 13.3748 3.18684 13.3748 3.23098 13.366C3.58409 13.2954 3.82244 12.9334 3.76948 12.5538C3.67237 11.9447 3.79596 11.3356 4.11376 10.8501C4.43157 10.3645 4.90827 10.0379 5.42911 9.95846C6.25893 9.81721 7.03578 10.3381 7.24765 10.497C7.39772 10.6029 7.57428 10.647 7.74201 10.6117C7.91857 10.5764 8.07747 10.4616 8.17458 10.3027L8.1834 10.2939Z" fill="currentColor" />
<path d="M11.9977 7.90158C13.2954 7.90158 14.3547 6.84223 14.3547 5.54454C14.3547 4.24684 13.2954 3.1875 11.9977 3.1875C10.7 3.1875 9.64062 4.24684 9.64062 5.54454C9.64062 6.84223 10.7 7.90158 11.9977 7.90158ZM10.9383 5.54454C10.9383 4.9619 11.415 4.48519 11.9977 4.48519C12.5803 4.48519 13.057 4.9619 13.057 5.54454C13.057 6.12718 12.5803 6.60388 11.9977 6.60388C11.415 6.60388 10.9383 6.12718 10.9383 5.54454Z" fill="currentColor" />
<path d="M5.67735 7.90158C6.97504 7.90158 8.03439 6.84223 8.03439 5.54454C8.03439 4.24684 6.97504 3.1875 5.67735 3.1875C4.37965 3.1875 3.32031 4.24684 3.32031 5.54454C3.32031 6.84223 4.37965 7.90158 5.67735 7.90158ZM4.61801 5.54454C4.61801 4.9619 5.09471 4.48519 5.67735 4.48519C6.25999 4.48519 6.73669 4.9619 6.73669 5.54454C6.73669 6.12718 6.25999 6.60388 5.67735 6.60388C5.09471 6.60388 4.61801 6.12718 4.61801 5.54454Z" fill="currentColor" />
</svg>
