<svg width="12" height="11" viewBox="0 0 12 11" fill="none" xmlns="http://www.w3.org/2000/svg">
<path fill-rule="evenodd" clip-rule="evenodd" d="M2.17292 0.55C2.09188 0.55 2.01416 0.582192 1.95686 0.639495C1.89955 0.696798 1.86736 0.774517 1.86736 0.855556V7.54722H7.97847C8.13035 7.54722 8.25347 7.67034 8.25347 7.82222V9.27361C8.25347 9.58561 8.37741 9.88483 8.59803 10.1054C8.81864 10.3261 9.11786 10.45 9.42986 10.45C9.74186 10.45 10.0411 10.3261 10.2617 10.1054C10.4823 9.88483 10.6062 9.58561 10.6062 9.27361V0.855556C10.6062 0.774517 10.5741 0.696798 10.5168 0.639495C10.4595 0.582193 10.3817 0.55 10.3007 0.55H2.17292ZM8.16632 10.45C7.86937 10.1311 7.70347 9.7109 7.70347 9.27361V8.09722H0.70625V9.27361C0.70625 9.58561 0.830191 9.88483 1.05081 10.1054C1.27142 10.3261 1.57064 10.45 1.88264 10.45H8.16632ZM1.31736 7.54722H0.43125C0.279372 7.54722 0.15625 7.67034 0.15625 7.82222V9.27361C0.15625 9.73148 0.338137 10.1706 0.661898 10.4944C0.985658 10.8181 1.42477 11 1.88264 11H9.42986C9.88773 11 10.3268 10.8181 10.6506 10.4944C10.9744 10.1706 11.1562 9.73148 11.1562 9.27361V0.855556C11.1562 0.628649 11.0661 0.411035 10.9057 0.250586C10.7452 0.0901384 10.5276 0 10.3007 0H2.17292C1.94601 0 1.7284 0.0901386 1.56795 0.250586C1.4075 0.411034 1.31736 0.628648 1.31736 0.855556V7.54722ZM4.51042 4.04861C4.51042 3.89673 4.63354 3.77361 4.78542 3.77361H7.68819C7.84007 3.77361 7.96319 3.89673 7.96319 4.04861C7.96319 4.20049 7.84007 4.32361 7.68819 4.32361H4.78542C4.63354 4.32361 4.51042 4.20049 4.51042 4.04861Z" fill="currentColor"/>
</svg>
