<svg width="28" height="29" viewBox="0 0 28 29" fill="none" xmlns="http://www.w3.org/2000/svg">
<path d="M26.1659 18.7492L23.4289 16.8334C23.8801 15.2418 23.9101 13.5176 23.4289 11.7934L26.1659 9.90707L23.9853 6.22286L20.9326 7.57865C19.7446 6.3997 18.2408 5.48602 16.4813 5.05865L16.1805 1.80181H11.8195L11.5187 5.05865C9.75924 5.48602 8.25542 6.3997 7.06741 7.57865L4.01466 6.22286L1.83413 9.90707L4.57107 11.7934C4.08985 13.5176 4.11993 15.2418 4.57107 16.8334L1.83413 18.7492L4.01466 22.4334L7.06741 21.0629C8.25542 22.2271 9.75924 23.1113 11.5187 23.5681L11.8195 26.8544H16.1805L16.4813 23.5681C18.2408 23.1113 19.7446 22.2271 20.9326 21.0629L23.9853 22.4334L26.1659 18.7492ZM17.0076 0.328125C17.4137 0.328125 17.7595 0.622862 17.7595 1.00602L18.0302 4.01234C19.1731 4.42497 20.1957 5.02918 21.113 5.75128L23.8951 4.46918C24.241 4.29234 24.6771 4.41023 24.8876 4.74918L27.8953 9.90707C28.1058 10.2165 27.9855 10.6439 27.6546 10.865L25.1433 12.5892C25.3388 13.7681 25.3237 14.9323 25.1433 16.0671L27.6546 17.7913C27.9855 18.0123 28.1058 18.4397 27.8953 18.7492L24.8876 23.9071C24.6771 24.2165 24.241 24.3344 23.8951 24.1576L21.113 22.8902C20.1957 23.6123 19.1731 24.2018 18.0302 24.6439L17.7595 27.5913C17.7595 28.0187 17.4137 28.3281 17.0076 28.3281H10.9924C10.7929 28.3281 10.6017 28.2505 10.4607 28.1123C10.3197 27.9741 10.2405 27.7867 10.2405 27.5913L9.96977 24.6439C8.82687 24.2018 7.80428 23.6123 6.88695 22.8902L4.10489 24.1576C3.75901 24.3344 3.32291 24.2165 3.11237 23.9071L0.104739 18.7492C-0.105795 18.4397 0.0145101 18.0123 0.34535 17.7913L2.85672 16.0671C2.67626 14.9323 2.66123 13.7681 2.85672 12.5892L0.34535 10.865C0.0145101 10.6439 -0.105795 10.2165 0.104739 9.90707L3.11237 4.74918C3.32291 4.41023 3.75901 4.29234 4.10489 4.46918L6.88695 5.75128C7.80428 5.02918 8.82687 4.42497 9.96977 4.01234L10.2405 1.00602C10.2405 0.622862 10.5863 0.328125 10.9924 0.328125H17.0076ZM14 9.17023C15.3959 9.17023 16.7347 9.71365 17.7218 10.6809C18.7088 11.6482 19.2634 12.9602 19.2634 14.3281C19.2634 15.6961 18.7088 17.008 17.7218 17.9753C16.7347 18.9426 15.3959 19.486 14 19.486C12.6041 19.486 11.2653 18.9426 10.2782 17.9753C9.29117 17.008 8.73664 15.6961 8.73664 14.3281C8.73664 12.9602 9.29117 11.6482 10.2782 10.6809C11.2653 9.71365 12.6041 9.17023 14 9.17023ZM14 10.6439C13.0029 10.6439 12.0467 11.0321 11.3416 11.723C10.6366 12.4139 10.2405 13.351 10.2405 14.3281C10.2405 15.3052 10.6366 16.2423 11.3416 16.9333C12.0467 17.6242 13.0029 18.0123 14 18.0123C14.9971 18.0123 15.9533 17.6242 16.6584 16.9333C17.3634 16.2423 17.7595 15.3052 17.7595 14.3281C17.7595 13.351 17.3634 12.4139 16.6584 11.723C15.9533 11.0321 14.9971 10.6439 14 10.6439Z" fill="white"/>
</svg>
