<svg width="16" height="20" viewBox="0 0 16 20" fill="none" xmlns="http://www.w3.org/2000/svg">
<path d="M15.8683 0.536675C15.8683 0.256768 15.6433 0.0295976 15.3661 0.0295976H12.0428C12.0294 0.0282454 12.018 0.0214844 12.0039 0.0214844H6.67571C6.66165 0.0214844 6.65027 0.0282454 6.63687 0.0295976H2.1082C2.08946 0.0289215 2.06736 0.0282454 2.04526 0.0282454C1.01337 0.0282454 0.17232 0.853091 0.132812 1.88482V1.8882V18.3777C0.20848 19.2776 0.950424 19.978 1.85509 19.978C1.89727 19.978 1.93879 19.9767 1.98031 19.9733H1.97495H15.3674C15.6447 19.9733 15.8697 19.7461 15.8697 19.4662C15.8697 19.1863 15.6447 18.9591 15.3674 18.9591H2.10887C2.09347 18.9598 2.07539 18.9605 2.05731 18.9605C1.57719 18.9605 1.18278 18.5906 1.13792 18.1174V18.1133V17.2864C1.13792 16.9761 1.52898 16.7043 1.97361 16.7043L15.3674 16.7429C15.506 16.7429 15.6319 16.6861 15.7223 16.5941C15.7337 16.5826 15.7391 16.5664 15.7491 16.5535C15.7806 16.5191 15.8074 16.4792 15.8281 16.4366L15.8295 16.4339C15.8402 16.4007 15.8489 16.3629 15.8522 16.323V16.321C15.8596 16.2973 15.8656 16.2689 15.869 16.2392V16.2371V16.2358L15.8683 0.536675ZM14.8639 15.7294L4.4847 15.6996V1.04375H6.17282V8.10767C6.17282 8.10767 6.17282 8.10767 6.17282 8.10835C6.17282 8.38826 6.39782 8.61475 6.67437 8.61475C6.79558 8.61475 6.90673 8.57148 6.99311 8.49914L6.99244 8.49981L9.34282 6.56007L11.6892 8.45587C11.7742 8.52483 11.8834 8.56675 12.0026 8.56675C12.2798 8.56675 12.5048 8.33958 12.5055 8.05967V1.04375H14.8632L14.8639 15.7294ZM11.5017 1.04375V7.00427L9.65353 5.51144C9.56849 5.4418 9.45934 5.39988 9.34015 5.39988C9.21894 5.39988 9.10779 5.44315 9.02074 5.51617L9.02141 5.5155L7.17726 7.03808V1.04375H11.5017ZM1.13658 15.8747V1.88888C1.18144 1.41223 1.57652 1.0424 2.05664 1.0424C2.07472 1.0424 2.0928 1.04308 2.11021 1.04375H2.10753H3.48026V15.6962L1.97361 15.6922C1.67027 15.6935 1.38233 15.7605 1.12386 15.8801L1.13658 15.8747Z" fill="currentColor" />
</svg>
