<svg width="15" height="16" viewBox="0 0 15 16" fill="none" xmlns="http://www.w3.org/2000/svg">
<path d="M6.72469 12.2276C7.04286 12.2045 7.37898 12.2102 7.7325 12.2451C7.85222 12.2564 7.90575 12.3231 7.89266 12.4444C7.82195 13.1088 7.71987 13.7674 7.58699 14.42C7.51829 14.7571 7.49942 15.1034 7.43953 15.4385C7.43312 15.4712 7.41684 15.5011 7.39266 15.5235C7.27785 15.6262 7.13211 15.7042 7.13387 15.8789C7.13452 15.9916 7.10514 16.0013 7.045 15.9073C6.96971 15.7899 6.87506 15.6695 6.7618 15.5469C6.74028 15.5234 6.71393 15.5083 6.6827 15.501C6.61919 15.4865 6.5841 15.4471 6.57821 15.3838C6.57496 15.3476 6.58977 15.339 6.62117 15.3575C6.67526 15.3889 6.72887 15.4197 6.78231 15.4492C6.83861 15.4802 6.85053 15.4675 6.81649 15.4121C6.76674 15.3311 6.6952 15.2666 6.6036 15.2178C6.59017 15.2106 6.57485 15.2066 6.55965 15.2071C6.54447 15.2076 6.52961 15.2127 6.51668 15.2207C6.50374 15.2288 6.49266 15.2404 6.48543 15.2539C6.47832 15.2674 6.47523 15.2826 6.47567 15.2979L6.48055 15.5166C6.4818 15.5598 6.47041 15.5633 6.44637 15.5274C6.32757 15.3474 6.42562 15.0864 6.46688 14.8946C6.47339 14.8624 6.47202 14.8304 6.46297 14.7989C6.36019 14.46 6.33732 14.1125 6.39559 13.7578C6.47413 13.2806 6.55079 12.8018 6.6241 12.3213C6.62804 12.2964 6.64 12.2739 6.65828 12.2569C6.67662 12.2398 6.69992 12.2293 6.72469 12.2276ZM3.87996 10.7959C3.92138 10.7985 3.95994 10.8173 3.98836 10.8477L4.64168 11.5498C4.65368 11.5629 4.66017 11.5799 4.66024 11.5977C4.66024 11.6157 4.65383 11.6333 4.64168 11.6465C4.46821 11.8344 4.28079 12.0161 4.07918 12.1914C3.55101 12.6521 3.0079 13.1139 2.45028 13.5772C2.18851 13.7946 1.90592 13.978 1.6036 14.127C1.55714 14.1494 1.5346 14.1354 1.53719 14.084L1.54012 14.0117C1.54074 13.9961 1.53781 13.9801 1.53133 13.9658C1.52485 13.9518 1.51507 13.9394 1.50301 13.9297C1.44806 13.8856 1.39518 13.8881 1.34481 13.9375C1.2723 14.0106 1.26718 14.0918 1.32918 14.1807C1.33328 14.1866 1.33551 14.194 1.33602 14.2012C1.33645 14.2082 1.33528 14.2154 1.33211 14.2217C1.32891 14.228 1.32435 14.2336 1.31844 14.2373C1.31239 14.2411 1.30506 14.2431 1.29793 14.2432C1.25147 14.2445 1.21828 14.2296 1.1993 14.1992C1.18712 14.1788 1.18434 14.1473 1.19149 14.1055C1.20718 14.0172 1.22106 13.9285 1.23153 13.8389C1.2348 13.8086 1.25122 13.7898 1.28133 13.7832L1.36434 13.7657C1.39773 13.7584 1.41769 13.7381 1.42293 13.7051C1.42485 13.6934 1.42449 13.6823 1.42196 13.6719C1.41475 13.6462 1.39768 13.6297 1.37215 13.6231C1.31092 13.6073 1.25863 13.5768 1.21492 13.5323C1.18285 13.5 1.14743 13.4965 1.10946 13.5215L0.982503 13.6055C0.978338 13.6081 0.973674 13.6098 0.968831 13.6104C0.963895 13.611 0.958846 13.61 0.954182 13.6084C0.949449 13.6068 0.944973 13.6041 0.941487 13.6006C0.93814 13.5972 0.935205 13.5934 0.933674 13.5889L0.920003 13.5479C0.910867 13.5209 0.916003 13.497 0.935628 13.4766C1.14509 13.2604 1.36763 13.0307 1.60262 12.7881C2.00583 12.3716 2.55702 11.884 3.25594 11.3252C3.44538 11.174 3.58025 10.9902 3.76571 10.834C3.79763 10.8073 3.83855 10.7934 3.87996 10.7959ZM10.3067 10.6807C10.3354 10.6811 10.364 10.6875 10.3897 10.7002C10.4154 10.713 10.4384 10.7313 10.4561 10.7539C10.4882 10.7961 10.5337 10.8435 10.5938 10.8955C11.0749 11.3154 11.6122 11.6789 12.2052 11.9854C12.4107 12.1172 12.5514 12.2484 12.6261 12.3789C12.6254 12.3887 12.6247 12.3985 12.6241 12.4082C12.1044 12.4906 11.8739 12.7468 11.9327 13.1758C11.5301 12.9794 11.1289 12.7621 10.7296 12.5235C10.7232 12.5199 10.5293 12.4201 10.1475 12.2246C9.85948 12.077 9.62157 11.8737 9.43367 11.6153C9.3958 11.5633 9.40099 11.5165 9.4493 11.4737C9.71183 11.2456 9.94717 11.0038 10.1554 10.75C10.1737 10.7279 10.1968 10.7104 10.2227 10.6983C10.2489 10.6861 10.2779 10.6803 10.3067 10.6807ZM8.44442 4.64456C8.47518 4.65389 8.50318 4.67237 8.52352 4.6973L9.21688 5.53226C9.24368 5.5652 9.24339 5.59762 9.2159 5.62991C9.18662 5.66405 9.16385 5.70154 9.14754 5.74222C9.14103 5.75828 9.13891 5.77605 9.14168 5.793C9.14443 5.8098 9.15211 5.82526 9.16317 5.83792C9.4846 6.20708 9.71963 6.64068 9.86825 7.13772C9.95562 7.42639 9.93084 7.72097 9.91317 8.02347C9.9063 8.14007 9.85677 8.22936 9.80477 8.32815C9.79037 8.35452 9.79777 8.37137 9.82723 8.37796L9.86043 8.3848C9.87542 8.38873 9.88151 8.39841 9.87899 8.41409C9.86525 8.49772 9.83489 8.57315 9.78719 8.63968C9.7682 8.66605 9.74244 8.68416 9.71102 8.69339C9.59731 8.72837 9.54818 8.80498 9.56453 8.92288C9.56906 8.95445 9.56071 8.9822 9.53914 9.00589C9.2722 9.29648 9.07011 9.59221 8.73055 9.80179C8.5722 9.89931 8.41074 10.016 8.24715 10.1524C8.23751 10.1607 8.22488 10.1661 8.212 10.167C8.19929 10.1678 8.18688 10.164 8.17586 10.1573L8.14266 10.1377C8.11761 10.1221 8.11635 10.1049 8.13875 10.086C8.20291 10.0312 8.25764 9.96898 8.30282 9.90042C8.32636 9.86419 8.31865 9.85465 8.27938 9.87112C7.97118 10.0009 7.70374 10.1583 7.47664 10.3428C7.45177 10.3626 7.42343 10.3702 7.39266 10.3662L7.22371 10.3448C7.19246 10.3402 7.16713 10.3506 7.14754 10.376C7.04607 10.5046 6.91245 10.5563 6.74813 10.5313C6.71496 10.5262 6.69086 10.5392 6.67586 10.5694L6.59285 10.7354C6.56863 10.7822 6.53289 10.7933 6.48641 10.7696C6.23717 10.6421 5.94655 10.6029 5.72371 10.4805C5.35546 10.2778 4.81724 9.93678 4.68172 9.5264C4.62547 9.35508 4.58645 9.17162 4.56551 8.97659C4.54794 8.8113 4.57407 8.60617 4.64461 8.36136C4.7271 8.07656 4.78446 7.78738 4.92489 7.53226C5.66631 6.19433 6.88255 5.09548 8.35067 4.64456C8.38127 4.63533 8.41389 4.63536 8.44442 4.64456ZM8.36043 6.00296C8.31585 5.99917 8.27112 6.00723 8.23055 6.0264C7.19064 6.52377 6.30858 7.54502 5.79989 8.56351C5.64342 8.87599 5.56294 9.23332 5.5577 9.6348C5.55708 9.66835 5.56835 9.69672 5.59188 9.71976C6.03376 10.1497 6.71035 9.86747 7.19051 9.68851C7.40655 9.60808 7.58684 9.51627 7.73153 9.41409C8.36973 8.96324 8.89443 8.35136 9.08992 7.57034C9.11742 7.46224 9.11902 7.34309 9.09481 7.2139C9.0732 7.09787 9.0629 6.97272 9.06356 6.8389C9.06544 6.39902 8.79767 6.26737 8.48446 6.04788C8.44785 6.02217 8.40498 6.00677 8.36043 6.00296ZM8.71297 9.49808C8.69891 9.50384 8.68444 9.5116 8.67098 9.52054C8.64399 9.53848 8.62163 9.56113 8.60848 9.58304C8.59534 9.60509 8.59304 9.62556 8.60164 9.6387C8.60589 9.64495 8.61238 9.64983 8.62117 9.65237C8.63026 9.65496 8.64185 9.65507 8.65438 9.65335C8.66679 9.65163 8.6805 9.6483 8.69442 9.64261C8.70848 9.63684 8.72295 9.62908 8.73641 9.62015C8.76341 9.60221 8.78575 9.57956 8.79891 9.55765C8.81205 9.5356 8.81435 9.51512 8.80575 9.50198C8.80149 9.49574 8.79502 9.49085 8.78621 9.48831C8.77713 9.48572 8.76554 9.48562 8.75301 9.48733C8.7406 9.48906 8.72688 9.49238 8.71297 9.49808ZM3.21102 7.43167C3.26143 7.43299 3.29105 7.45872 3.29891 7.50882C3.3552 7.84962 3.38032 8.18857 3.37508 8.52542C3.3748 8.53956 3.37133 8.55367 3.36531 8.56644C3.35929 8.5791 3.35055 8.59062 3.33992 8.59964C3.3293 8.60858 3.31708 8.61545 3.30379 8.61917C3.29046 8.62289 3.27641 8.62331 3.26278 8.62112C2.73943 8.54104 2.31085 8.56057 1.72176 8.64163C1.15219 8.71942 0.597476 8.76326 0.0586744 8.77249C-0.0123365 8.76379 -0.0189462 8.70873 0.0391432 8.60745C0.283811 8.5587 0.458459 8.44442 0.562581 8.26468C0.579602 8.23567 0.603111 8.21343 0.631917 8.19827C1.02958 7.98575 1.46281 7.91578 1.85457 7.77835C2.03379 7.71514 2.2157 7.66007 2.39949 7.61331C2.4984 7.58856 2.53793 7.53901 2.59285 7.45901C2.60223 7.44551 2.61518 7.43432 2.62996 7.42679C2.64471 7.41935 2.66113 7.41582 2.67781 7.41605L3.21102 7.43167ZM13.8575 7.13382C13.8908 7.13449 13.9167 7.14832 13.9356 7.17581C13.9664 7.22129 13.9638 7.27626 13.9278 7.34085C13.9101 7.37315 13.8554 7.41191 13.7638 7.45608C13.7333 7.47127 13.7156 7.49651 13.711 7.53128L13.6778 7.81741C13.6732 7.85622 13.6885 7.86791 13.7237 7.85159C13.8034 7.81343 13.8411 7.75661 13.836 7.68167C13.8352 7.66643 13.8375 7.6506 13.8438 7.63675C13.8502 7.62294 13.8601 7.61077 13.8722 7.60159C13.8843 7.5924 13.8991 7.58635 13.9141 7.58401C13.9291 7.58174 13.9448 7.58288 13.9591 7.58792C14.0355 7.6156 14.0781 7.65892 14.088 7.71683C14.0945 7.75572 14.0833 7.76239 14.0538 7.73733L14.0294 7.71683C14.0196 7.7083 14.0108 7.70902 14.003 7.71878C13.9363 7.79523 13.9392 7.87976 14.0118 7.97269C14.0229 7.98719 14.0352 7.98846 14.0489 7.97659L14.0723 7.95706C14.086 7.9459 14.0879 7.93307 14.0782 7.918C14.0639 7.89697 14.0558 7.87587 14.0538 7.8555C14.0512 7.82198 14.0655 7.79871 14.0968 7.78616L14.2833 7.71097C14.2902 7.70886 14.2981 7.70919 14.3048 7.71194C14.3113 7.71467 14.3169 7.71941 14.3204 7.72562C14.3239 7.732 14.3246 7.73995 14.3233 7.7471C14.322 7.75414 14.319 7.76099 14.3136 7.76565C14.2553 7.80719 14.2215 7.85832 14.213 7.91897C14.2053 7.97266 14.2283 7.99927 14.2823 7.99808C14.4388 7.99412 14.592 7.98838 14.7413 7.98245C15.0745 7.96993 15.0858 8.02585 14.7755 8.14847C14.6343 8.20475 14.4997 8.25073 14.3487 8.27249C13.9611 8.32919 13.5829 8.38762 13.2149 8.44827L12.6241 8.50491L11.9903 8.57327L11.418 8.60647C11.3622 8.60982 11.307 8.59377 11.2618 8.56058C11.2167 8.52738 11.1848 8.47934 11.171 8.42483C11.0813 8.07295 11.044 7.72011 11.0597 7.36624C11.061 7.3347 11.0772 7.3172 11.1085 7.31448L11.9766 7.2344L12.6143 7.17679L13.1778 7.12698L13.8575 7.13382ZM9.6827 7.80862C9.67558 7.81325 9.66778 7.82083 9.66024 7.83108C9.65263 7.84149 9.64466 7.85462 9.63778 7.86917C9.63095 7.88362 9.62527 7.89968 9.6202 7.91605C9.6151 7.93254 9.61102 7.94994 9.60848 7.96585C9.606 7.9815 9.60517 7.99608 9.60555 8.00882C9.60595 8.02173 9.60715 8.03309 9.61043 8.04105C9.61369 8.04882 9.61854 8.0539 9.6241 8.05569C9.62976 8.05747 9.63645 8.05547 9.64364 8.05081C9.65078 8.04617 9.65852 8.03867 9.6661 8.02835C9.67371 8.01795 9.68168 8.00482 9.68856 7.99026C9.69538 7.9758 9.70107 7.95976 9.70614 7.94339C9.7112 7.927 9.71531 7.91039 9.71785 7.89456C9.7204 7.87865 9.72118 7.86353 9.72078 7.85062C9.72039 7.83794 9.71907 7.82727 9.7159 7.81937C9.71269 7.81158 9.70774 7.80659 9.70223 7.80472C9.6966 7.80295 9.68984 7.80402 9.6827 7.80862ZM1.05477 2.77542C1.21778 2.813 1.3713 2.83703 1.52449 2.90823C2.02057 3.1369 2.52315 3.34986 3.03231 3.5469C3.43195 3.70115 3.74157 3.86234 4.04891 4.10062C4.06294 4.11138 4.07477 4.12497 4.08309 4.14065C4.09141 4.15646 4.09671 4.1745 4.09774 4.19241C4.09872 4.21024 4.09538 4.22845 4.08895 4.24515C4.08249 4.26178 4.07233 4.27657 4.05965 4.28909C3.84428 4.50069 3.6527 4.72974 3.48446 4.97562C3.38038 5.12787 3.24961 5.15641 3.09188 5.06155C2.55373 4.74017 1.93069 4.51054 1.41414 4.21487C1.10677 4.03988 0.521714 3.75371 0.116292 3.44144C0.0979606 3.43484 0.0789586 3.42784 0.0606275 3.4219L0.734456 3.62503C0.750603 3.62983 0.768029 3.62953 0.78426 3.62503C0.80035 3.62056 0.814865 3.61192 0.826253 3.59964C0.837689 3.5872 0.845511 3.57136 0.848713 3.55472C0.851871 3.53813 0.850781 3.5207 0.844807 3.50491C0.838979 3.48997 0.832721 3.47892 0.826253 3.47171C0.800068 3.44271 0.800717 3.41443 0.828206 3.38675C0.883805 3.32879 0.914072 3.27853 0.920003 3.23636C0.924585 3.20405 0.910744 3.18753 0.87801 3.18753H0.825276C0.665534 3.18753 0.651693 3.14562 0.783284 3.06058L0.960042 2.94437C0.985949 2.92724 0.995205 2.90326 0.987385 2.87308C0.98159 2.85154 0.98162 2.83214 0.987385 2.81448C0.998498 2.78091 1.02081 2.76758 1.05477 2.77542ZM12.2706 2.05179C12.3046 2.03072 12.3272 2.03941 12.337 2.07815C12.3448 2.11177 12.332 2.15214 12.2979 2.19827C12.275 2.35303 12.2215 2.494 12.1378 2.62112C12.1057 2.66991 12.0906 2.71311 12.0938 2.75003C12.0998 2.81451 12.131 2.8556 12.1866 2.87405C12.2166 2.88457 12.2406 2.90314 12.2589 2.92874C12.3046 2.9926 12.3576 3.01702 12.4171 3.00198C12.4262 3.09157 12.4856 3.11532 12.5948 3.07327C12.6282 3.06075 12.6549 3.03883 12.6739 3.00784L12.7266 2.92288C12.7463 2.8919 12.7746 2.87252 12.8106 2.86526L13.1632 2.79983C13.2132 2.81582 13.1892 2.88101 13.0919 2.99417L12.4669 3.5596L12.1739 3.793L10.8028 4.96683C10.7909 4.97703 10.7767 4.98455 10.7618 4.98929C10.747 4.99394 10.7313 4.99563 10.7159 4.99417C10.7004 4.99267 10.6856 4.98791 10.672 4.9805C10.6582 4.97304 10.6456 4.96346 10.6358 4.9512C10.4659 4.73662 10.3952 4.55861 10.1192 4.48147C10.0541 4.46313 9.99787 4.42123 9.96102 4.36429C9.92422 4.30736 9.90923 4.23899 9.91903 4.1719C9.94749 3.98016 9.94666 3.89414 10.1173 3.76175C10.7594 3.2654 11.36 2.77932 11.919 2.30472C12.0093 2.22765 12.1267 2.14334 12.2706 2.05179ZM7.69539 0.00295924C7.72027 -0.00824789 7.74925 0.0124025 7.78133 0.0644827C7.79151 0.0811659 7.79629 0.10123 7.795 0.121123C7.76883 0.560737 7.75111 1.06889 7.74129 1.64554C7.7282 2.36006 7.71661 3.07457 7.70614 3.78909C7.70548 3.82205 7.68841 3.84112 7.65633 3.84573C7.27608 3.89646 6.90175 3.90345 6.53328 3.86722C6.50069 3.86394 6.48394 3.8462 6.4825 3.81351C6.46679 3.25183 6.4568 2.69186 6.45418 2.1348C6.45354 2.00565 6.46675 1.87878 6.49227 1.75491C6.54322 1.50888 6.5393 1.20102 6.7784 1.06058C6.88249 0.999926 6.96138 0.93734 7.01375 0.874053C7.03662 0.847178 7.06414 0.827603 7.09676 0.816436L7.1534 0.797881C7.18548 0.787333 7.20287 0.764779 7.20418 0.730498C7.20682 0.642931 7.21841 0.557602 7.23934 0.474639C7.2485 0.440409 7.26269 0.414935 7.28231 0.398467C7.30915 0.376712 7.33877 0.367192 7.3702 0.36917C7.4038 0.371908 7.41722 0.389329 7.41024 0.421905C7.40304 0.456844 7.404 0.491164 7.41317 0.523467C7.42428 0.56263 7.44182 0.565895 7.4659 0.533233C7.4934 0.496315 7.50659 0.453428 7.50594 0.405303C7.50598 0.373728 7.51661 0.345348 7.53621 0.320342C7.59951 0.241397 7.64026 0.151086 7.65926 0.0498342C7.66317 0.0282056 7.67531 0.0122073 7.69539 0.00295924Z" fill="#EBF0FE"/>
</svg>
