<svg width="21" height="20" viewBox="0 0 21 20" fill="none" xmlns="http://www.w3.org/2000/svg">
<path d="M17.5 3H15.5C15.5 2.44766 15.0523 2 14.5 2H13.5V1C13.5 0.447656 13.0523 0 12.5 0H8.5C7.94766 0 7.5 0.447656 7.5 1V2H6.5C5.94766 2 5.5 2.44766 5.5 3H3.5C2.94766 3 2.5 3.44766 2.5 4V19C2.5 19.5523 2.94766 20 3.5 20H17.5C18.0523 20 18.5 19.5523 18.5 19V4C18.5 3.44766 18.0523 3 17.5 3ZM6.5 3H8.5V1H12.5V3H14.5V4H6.5V3ZM17.5 19H3.5V4H5.5C5.5 4.55234 5.94766 5 6.5 5H14.5C15.0523 5 15.5 4.55234 15.5 4H17.5V19Z" fill="currentColor"/>
<path d="M15.5 7H5.5V8H15.5V7Z" fill="currentColor"/>
<path d="M15.5 10H5.5V11H15.5V10Z" fill="currentColor"/>
</svg>
