<svg width="33" height="33" viewBox="0 0 33 33" fill="none" xmlns="http://www.w3.org/2000/svg">
<path d="M32.9719 15.4044C32.9719 15.3134 32.9719 15.2132 32.9628 15.1222C32.9264 14.576 32.8445 14.039 32.7443 13.5019C32.626 12.892 32.4804 12.2912 32.2892 11.6996C32.0707 10.9986 31.8158 10.3068 31.4881 9.64234C31.306 9.27823 31.1149 8.91412 30.9146 8.55001C30.505 7.80358 30.0498 7.08447 29.54 6.39266C29.0848 5.78277 28.6024 5.19109 28.0562 4.66313C27.8923 4.49928 27.7103 4.34454 27.5373 4.18979C26.9729 3.69824 26.3903 3.2431 25.7622 2.82438C25.043 2.34193 24.2874 1.9141 23.5046 1.54999C22.922 1.27691 22.3302 1.04024 21.7203 0.830876C20.901 0.54869 20.0635 0.339327 19.2078 0.193683C18.4796 0.0662445 17.7422 -0.0156803 17.0048 0.00252521C16.577 0.011628 16.1491 0.00252521 15.7213 0.00252521C15.3845 0.00252521 15.0477 0.0207307 14.7108 0.0571417C14.0645 0.129964 13.4273 0.239197 12.7992 0.384841C11.9343 0.594204 11.0786 0.867287 10.2593 1.20409C9.67674 1.44076 9.11234 1.70474 8.55704 2.00513C7.8834 2.36014 7.23707 2.76976 6.62716 3.2158C6.05365 3.63452 5.50746 4.08966 4.98857 4.59031C4.65175 4.90891 4.34224 5.25481 4.04184 5.60982C3.57757 6.14688 3.14972 6.71125 2.76738 7.30293C2.32133 7.97654 1.92989 8.67745 1.58396 9.40567C1.30176 9.99735 1.05598 10.6072 0.846601 11.2262C0.518885 12.182 0.273097 13.1651 0.127445 14.1664C0.0819291 14.5123 0.0273097 14.8491 0.0182065 15.2041C0.0182065 15.286 0.0182065 15.3771 0 15.459V15.55C0 15.55 0.0273097 15.6228 0 15.6593V17.3888C0 17.3888 0.036413 17.4616 0 17.498V17.5526C0.0182065 17.6801 0.00910324 17.8166 0.0182065 17.944C0.0637227 18.5084 0.145652 19.0728 0.254891 19.6281C0.409646 20.3927 0.609917 21.1391 0.864808 21.8673C1.10149 22.55 1.38369 23.2236 1.70231 23.8699C2.08464 24.6528 2.5307 25.4083 3.03138 26.1274C3.47744 26.7646 3.95991 27.3563 4.497 27.9207C4.94306 28.394 5.43463 28.8309 5.94441 29.2406C6.97308 30.0689 8.08367 30.788 9.2762 31.3615C9.88612 31.6528 10.5142 31.9168 11.1515 32.1352C12.0072 32.4356 12.8811 32.6632 13.7823 32.8179C14.1737 32.8817 14.5652 32.9454 14.9657 32.9727C15.1023 32.9818 15.2388 32.9727 15.3754 33H15.43C15.43 33 15.5119 32.9818 15.5574 33H17.4145C17.4145 33 17.4782 32.9727 17.5055 33H17.5966C17.724 32.9818 17.8606 33 17.988 32.9818C18.5433 32.9363 19.0986 32.8544 19.6448 32.7451C20.4368 32.5813 21.2196 32.3719 21.9843 32.0897C22.7763 31.8075 23.5501 31.4707 24.2965 31.0793C24.9793 30.7243 25.6347 30.3238 26.2628 29.8778C26.9183 29.4135 27.5282 28.9038 28.1017 28.3394C28.3748 28.0663 28.6297 27.775 28.8846 27.4837C29.3579 26.9376 29.804 26.3641 30.2045 25.7542C30.6779 25.0442 31.0967 24.3069 31.4517 23.5331C31.7157 22.9688 31.9524 22.3862 32.1526 21.7945C32.453 20.9389 32.6715 20.0559 32.8263 19.1638C32.9355 18.5084 33.0083 17.8439 32.9992 17.1703C32.9901 16.5877 32.9992 15.9961 32.9992 15.4135L32.9719 15.4044ZM24.4695 11.6814C24.2692 12.6189 24.069 13.5565 23.8687 14.4941C23.6593 15.4954 23.4408 16.4876 23.2315 17.4889C23.0312 18.4265 22.8309 19.355 22.6397 20.2926C22.4304 21.2575 22.2301 22.2314 22.0207 23.1963C21.9388 23.5787 21.8751 23.961 21.7658 24.3342C21.7385 24.4343 21.7021 24.5253 21.6475 24.6255C21.4654 24.9805 21.165 25.1079 20.7827 25.0078C20.4914 24.935 20.2547 24.7802 20.018 24.5982C18.7709 23.6697 17.5237 22.7503 16.2857 21.8218C16.2311 21.7763 16.2038 21.7945 16.1582 21.8309C15.5301 22.4408 14.902 23.0507 14.2739 23.6515C14.0554 23.8608 13.8096 24.0156 13.5092 24.0702C13.3818 24.0975 13.3818 24.0884 13.4 23.9701C13.4273 23.6242 13.4546 23.2874 13.4819 22.9415C13.5183 22.5227 13.5456 22.0949 13.582 21.6762C13.6093 21.3485 13.6367 21.0208 13.6549 20.6931C13.6731 20.4382 13.6913 20.1742 13.7095 19.9193C13.7095 19.8829 13.7277 19.8556 13.755 19.8283C14.8565 18.827 15.958 17.8166 17.0595 16.8062C18.1336 15.8231 19.2078 14.8491 20.2729 13.866C20.6279 13.5383 20.983 13.2197 21.338 12.892C21.3744 12.8556 21.4108 12.8192 21.4381 12.7828C21.511 12.6827 21.4745 12.5916 21.3562 12.5643C21.1923 12.5279 21.0467 12.5916 20.9101 12.6736C20.7736 12.7555 20.6461 12.8465 20.5096 12.9284C17.5055 14.8218 14.5106 16.7061 11.5065 18.5994C11.4337 18.645 11.3699 18.6541 11.288 18.6268C9.96804 18.2171 8.65718 17.8166 7.33721 17.4161C7.18245 17.3706 7.0186 17.3342 6.88205 17.2431C6.66357 17.0975 6.61805 16.9063 6.7455 16.6788C6.84563 16.4967 7.00949 16.3875 7.19156 16.2964C7.5921 16.1053 8.00175 15.9596 8.41139 15.8049C10.405 15.0312 12.3986 14.2665 14.3922 13.5019C17.2233 12.4096 20.0544 11.3172 22.8855 10.2249C23.1222 10.1339 23.3498 10.0338 23.5956 9.97004C24.0781 9.8517 24.5059 10.1248 24.5878 10.6254C24.5969 10.7074 24.6061 10.7802 24.6061 10.8439C24.6061 11.1443 24.5241 11.4083 24.4695 11.6814Z" fill="#1C3A7E"/>
</svg>
