<svg width="12" height="13" viewBox="0 0 12 13" fill="none" xmlns="http://www.w3.org/2000/svg">
<path d="M6.15625 2.5C7.14516 2.5 8.11185 2.79324 8.9341 3.34265C9.75634 3.89206 10.3972 4.67295 10.7756 5.58658C11.1541 6.50021 11.2531 7.50555 11.0602 8.47545C10.8672 9.44535 10.391 10.3363 9.69178 11.0355C8.99252 11.7348 8.10161 12.211 7.1317 12.4039C6.1618 12.5969 5.15646 12.4978 4.24283 12.1194C3.3292 11.741 2.54831 11.1001 1.9989 10.2778C1.44949 9.4556 1.15625 8.4889 1.15625 7.5C1.15625 6.17392 1.68303 4.90215 2.62072 3.96447C3.5584 3.02678 4.83017 2.5 6.15625 2.5ZM6.15625 2.5V0.5M4.15625 0.5H8.15625M6.15625 5.16667V7.83333H7.48958" stroke="currentColor" stroke-linecap="round" stroke-linejoin="round"/>
</svg>
