<svg width="26" height="27" viewBox="0 0 26 27" fill="none" xmlns="http://www.w3.org/2000/svg">
<path d="M1.0015 2.03125V18.5312C1.0015 18.9291 1.15954 19.3106 1.44084 19.5919C1.72214 19.8732 2.10368 20.0312 2.5015 20.0312H5.5015V26.0312L11.5015 20.0312H19.8775C20.2765 20.0312 20.6575 19.8738 20.938 19.5918L24.5605 15.9708C24.841 15.6888 25 15.3078 25 14.9088V2.03125C25 1.63343 24.842 1.25189 24.5607 0.97059C24.2794 0.689286 23.8978 0.53125 23.5 0.53125H2.5C2.10218 0.53125 1.72064 0.689286 1.43934 0.97059C1.15803 1.25189 1.0015 1.63343 1.0015 2.03125Z" stroke="#1E1E1E" stroke-linecap="round" stroke-linejoin="round"/>
<path d="M19.0039 6.53125V12.5312" stroke="#1E1E1E" stroke-linecap="round" stroke-linejoin="round"/>
<path d="M13.0039 6.53125V12.5312" stroke="#1E1E1E" stroke-linecap="round" stroke-linejoin="round"/>
</svg>
