<svg width="26" height="18" viewBox="0 0 26 18" fill="none" xmlns="http://www.w3.org/2000/svg">
<path d="M15.4 16.5214H10.6C8.05392 16.5214 5.61212 15.4847 3.81178 13.6393C2.01143 11.7939 1 9.29107 1 6.68131V0.53125H5.8V6.68131C5.8 7.98619 6.30571 9.23762 7.20589 10.1603C8.10606 11.083 9.32696 11.6014 10.6 11.6014V0.53125H15.4V6.06631H15.436C16.7512 5.8981 17.9612 5.24325 18.8385 4.22488C19.7158 3.2065 20.2 1.89474 20.2 0.53617H25L24.5896 2.64072C24.3438 3.90036 23.8206 5.08582 23.0598 6.10667C22.2991 7.12752 21.321 7.9568 20.2 8.53125C21.29 8.90348 22.2623 9.56926 23.0152 10.4589C23.768 11.3485 24.2737 12.4292 24.4792 13.5878L25 16.5263H20.2C20.2 15.1678 19.7158 13.856 18.8385 12.8376C17.9612 11.8192 16.7512 11.1644 15.436 10.9962V16.5312L15.4 16.5214Z" stroke="#1E1E1E" stroke-linecap="round" stroke-linejoin="round"/>
</svg>
