<svg width="22" height="24" viewBox="0 0 22 24" fill="none" xmlns="http://www.w3.org/2000/svg">
<g clip-path="url(#clip0_629_182807)">
<rect width="21.722" height="24" fill="white"/>
<path d="M0 11.52C0 6.0894 0 3.37413 1.52694 1.68707C3.05387 0 5.51142 0 10.4266 0H11.2955C16.2106 0 18.6681 0 20.1951 1.68707C21.722 3.37413 21.722 6.0894 21.722 11.52V12.48C21.722 17.9106 21.722 20.6259 20.1951 22.313C18.6681 24 16.2106 24 11.2955 24H10.4266C5.51142 24 3.05387 24 1.52694 22.313C0 20.6259 0 17.9106 0 12.48V11.52Z" fill="#0077FF"/>
<path d="M11.5564 17.2908C6.60554 17.2908 3.78172 13.5408 3.66406 7.30078H6.144C6.22545 11.8808 8.05368 13.8208 9.50181 14.2208V7.30078H11.837V11.2508C13.2671 11.0808 14.7693 9.28078 15.2762 7.30078H17.6113C17.2221 9.74078 15.593 11.5408 14.4345 12.2808C15.593 12.8808 17.4485 14.4508 18.1545 17.2908H15.5839C15.0318 15.3908 13.6562 13.9208 11.837 13.7208V17.2908H11.5564Z" fill="white"/>
</g>
<defs>
<clipPath id="clip0_629_182807">
<rect width="21.722" height="24" fill="white"/>
</clipPath>
</defs>
</svg>
