<svg width="15" height="16" viewBox="0 0 15 16" fill="none" xmlns="http://www.w3.org/2000/svg">
<path d="M7.5 15.5C11.6421 15.5 15 12.1421 15 8C15 3.85786 11.6421 0.5 7.5 0.5C3.35786 0.5 0 3.85786 0 8C0 12.1421 3.35786 15.5 7.5 15.5Z" fill="#3881F6"/>
<path d="M8.625 11.375C8.625 11.5975 8.55902 11.815 8.4354 12C8.31179 12.185 8.13609 12.3292 7.93052 12.4144C7.72495 12.4995 7.49875 12.5218 7.28052 12.4784C7.0623 12.435 6.86184 12.3278 6.70451 12.1705C6.54717 12.0132 6.44003 11.8127 6.39662 11.5945C6.35321 11.3762 6.37549 11.15 6.46064 10.9445C6.54578 10.7389 6.68998 10.5632 6.87498 10.4396C7.05999 10.316 7.2775 10.25 7.5 10.25C7.79837 10.25 8.08452 10.3685 8.2955 10.5795C8.50647 10.7905 8.625 11.0766 8.625 11.375ZM8.25 8V4.25C8.25 4.05109 8.17098 3.86032 8.03033 3.71967C7.88968 3.57902 7.69891 3.5 7.5 3.5C7.30109 3.5 7.11032 3.57902 6.96967 3.71967C6.82902 3.86032 6.75 4.05109 6.75 4.25V8C6.75 8.19891 6.82902 8.38968 6.96967 8.53033C7.11032 8.67098 7.30109 8.75 7.5 8.75C7.69891 8.75 7.88968 8.67098 8.03033 8.53033C8.17098 8.38968 8.25 8.19891 8.25 8Z" fill="#F2F9FF"/>
</svg>
